<svg width="86" height="34" viewBox="0 0 86 34" fill="none" xmlns="http://www.w3.org/2000/svg">
<g id="logo_white 1" clip-path="url(#clip0_76_30287)">
<g id="Mask group">
<mask id="mask0_76_30287" style="mask-type:alpha" maskUnits="userSpaceOnUse" x="0" y="0" width="86" height="34">
<g id="Group">
<path id="Vector" fill-rule="evenodd" clip-rule="evenodd" d="M72.6995 34C64.005 34 57.7947 29.685 57.7947 21.7309L64.9883 21.471C65.2988 25.9939 68.6628 27.8135 72.6995 27.8135C76.1669 27.8135 78.3406 26.4618 78.3406 24.2783C78.3406 22.0948 76.4257 21.5749 73.5793 21.0031L67.4725 19.9113C62.2972 18.9235 58.6227 16.0122 58.6227 10.4495C58.6227 4.00306 63.6427 0 71.5609 0C80.4107 0 85.2237 4.41896 85.379 11.6972L78.1336 11.9052C77.9265 8.0581 75.2871 6.18654 71.5092 6.18654C68.197 6.18654 66.3339 7.53823 66.3339 9.7737C66.3339 11.6453 67.783 12.3211 70.1636 12.789L76.2705 13.8807C82.9466 15.0765 86 18.4037 86 23.7584C86 30.5168 80.1519 34 72.6995 34ZM7.81469 33.3761V20.8471H20.1836V14.4006H7.81469V7.12233H24.1169V0.623851H0V33.3761H7.81469ZM35.1273 0.623851L22.0856 33.3761H29.952L32.2467 27.4612C32.2435 27.455 32.2404 27.4489 32.2375 27.4428L35.0075 20.3792H34.972L39.164 9.61774H39.371L43.563 20.3792H35.9148C35.9645 22.1953 36.1322 24.1003 36.6987 26.3058H45.8401L48.6348 33.3761H57.0188L43.8735 0.623851H35.1273Z" fill="white"/>
</g>
</mask>
<g mask="url(#mask0_76_30287)">
<g id="Group_2">
<path id="Vector_2" fill-rule="evenodd" clip-rule="evenodd" d="M72.6995 34C64.005 34 57.7947 29.685 57.7947 21.7309L64.9883 21.471C65.2988 25.9939 68.6628 27.8135 72.6995 27.8135C76.1669 27.8135 78.3406 26.4618 78.3406 24.2783C78.3406 22.0948 76.4257 21.5749 73.5793 21.0031L67.4725 19.9113C62.2972 18.9235 58.6227 16.0122 58.6227 10.4495C58.6227 4.00306 63.6427 0 71.5609 0C80.4107 0 85.2237 4.41896 85.379 11.6972L78.1336 11.9052C77.9265 8.0581 75.2871 6.18654 71.5092 6.18654C68.197 6.18654 66.3339 7.53823 66.3339 9.7737C66.3339 11.6453 67.783 12.3211 70.1636 12.789L76.2705 13.8807C82.9466 15.0765 86 18.4037 86 23.7584C86 30.5168 80.1519 34 72.6995 34ZM7.81469 33.3761V20.8471H20.1836V14.4006H7.81469V7.12233H24.1169V0.623851H0V33.3761H7.81469ZM35.1273 0.623851L22.0856 33.3761H29.952L32.2467 27.4612C32.2435 27.455 32.2404 27.4489 32.2375 27.4428L35.0075 20.3792H34.972L39.164 9.61774H39.371L43.563 20.3792H35.9148C35.9645 22.1953 36.1322 24.1003 36.6987 26.3058H45.8401L48.6348 33.3761H57.0188L43.8735 0.623851H35.1273Z" fill="white"/>
</g>
</g>
</g>
</g>
<defs>
<clipPath id="clip0_76_30287">
<rect width="86" height="34" fill="white"/>
</clipPath>
</defs>
</svg>
