<svg xmlns="http://www.w3.org/2000/svg" width="740.271" height="414.477" viewBox="0 0 740.271 414.477">
  <g id="Сгруппировать_30" data-name="Сгруппировать 30" transform="translate(-792.937 19.112)">
    <g id="Сгруппировать_23" data-name="Сгруппировать 23" transform="translate(792.937 -19.112)">
      <g id="Сгруппировать_18" data-name="Сгруппировать 18" transform="translate(0 63.971)" opacity="0.14">
        <g id="Сгруппировать_17" data-name="Сгруппировать 17" transform="translate(0 0)">
          <path id="Контур_36" data-name="Контур 36" d="M989.732,76.782l.106-.016-.025-.072Z" transform="translate(-826.947 -61.416)" fill="#385dda"/>
          <path id="Контур_37" data-name="Контур 37" d="M1010.26,277.407l-26.232-10.413-2.977-7.279-20.583-14.858-2.057-4.573-.3-1.462-24.262-.716-.223-.32-1.022-2.946-5.576,2.718L920.875,245l-7.741-2.133-4.647-.5-2.314-4.9L908,229.089l-.141-1.89-5.683-1.955-6.124.64,3.393-7.437,2.595-7.335-6.506-.371-2.6,2.159-6.879,5.3-5.765-2.1-1.888-4.846L881.63,195.2l.28-.4,12.625-4.75,6.037.807.145-2.434,3.747-.385,9.163,4.617,3.084,8.843,3.32-5.6-.837-4.978,1.917-7.163,14.053-11.592,6.225-9.413,5.122-3.444,6.327-5.11s8.137-4.252,12.208-6.37c.1.208.194.422.285.635a14.494,14.494,0,0,0-2.692,4.389c.716-.092,2.1-.32,2.1-.32l5.281-2.611s3.108-1.142,4.657-1.731a11.045,11.045,0,0,0-3.209-1.8l-1.505-5.507s1.026-1.027,1.6-1.6c-1.8-2.788-4.3-1.711-7.276-1.3,1.534-.848,3.355-1.783,3.355-1.783l9.391-.112,6.6-1.646s2.406-1.184,3.611-1.763c.092.183.184.371.275.558-2.691,3.018-5.377,6.035-8.108,9.1.407.305.794.579.794.579l10.762,1.544,2.183-1.9s.106-3.556.106-5.679h-4.449c.721-1.585,1.9-4.161,1.9-4.161l.025-7.193-2.837-2.616s-3.229-9.408-3.858-13.015c-1.588,1.113-6.709,4.252-6.709,4.252l-2.619-.568.087-2.429-.915-3.134L966.838,105l-6.971,4.156-3.05,4.1-2.4,7.2-4.569,2.266-4.236,7.03s-2.3,1.391-3.495,2.052c-.2-1.4-.518-4.206-.518-4.206l1.331-2.662s.581-1.148.94-1.864c-1.008-.3-2.659-.8-2.659-.8s-10.374-5.318-13.409-4.724c.329-1.244.6-2.281.872-3.307-.6-.355-1.089-.65-2.319-1.386,3.273-2.337,8.941-6.273,8.941-6.273l11.908-5.268,3.588-1.808.223.275-2.164,2.621,3.97.706,7.58-.9-3.79-5.222-.131-.746,7.189-1.332,4.124-6.192,11.85,4.557-3.8,2.946-6.2,1.635-3.625,3.257,6.22.244,2.653,1.524,8.631,3.927-.59-1.941,5.044-1.768-1.6-6.462,3.214,1.7,4.212.635,1.742-1.362-.6-4.76L991.033,91l-1.389-5.867-6.656-2.673-5.625-2.636.5,2.484-.659.265-1.161-2.413-5.257-.046L961.151,81.6l-.407.579,1.133,6.482-6.651,5.45.571-4.079-2.851-.163.063-5.78,1.346-.859,6.758-1.676,1.466-2.057-2.672-.5.987-3.14-4.424,2.667-7.073,5.8-.184-.326,2.246-4.439-10.534,2.52,5.606,3.241-2.067,2.534,1.472,2.424-4.68,2.342-.383-.792.726-.483,2.067-1.519-2.74-1.509-5.078,1.808,2.014,1.52-9.647.106,7.716-2.6.208-2.382-1.065-.741.562-5.125-5.185.878-6.782-.5-3.209-2.555-7.13-.539-11.686,4.42,2.938,2.956,5.954-1.458.615.595-2.362,5.43-3.433-.671-7.73-1.178-5.175-1.362-16.382,2.53-9.958-2.2-8.35-.879-23.12.849L824.465,90.2s-1.985.782-3.123,1.244l2.281,4.252-10.582,1-2.958,4.227h6.39l-1.8,1.223L803.46,105.9l-4.057,3.439,1.414,3.535-.513,1.885h5.431l.1.381-12.9,6.3.087.726,4.313-.411,22.945-9.789-.145,1.834,10.006-3.794,11,1.61,3.238,1.8,3.074,13-.228,4.531-.184,3.576h-2.488l1.83,3.683.577,4.186L835.88,159.79l-1.462,5.186.692,6.9,5.939,10.963,1.758,10.378.14,3.845,3.021,5.034.334.625,4.318,4.312.45-2.824-5.484-15.021-.494-4.47,3.287,2.971.251,2.961,7.121,12.918,2.865,9.733,1.293,3.688,16.338,8.945,3.006.031,19.427,9.666,2.783,2.311,1.434,4.684,7.619,5.009,4.822-2.87,2.173,2,1.206,3.262-1.434,9.519-4.734,5.547-.232.422-1.51,18.933,28.11,38.581.858,22.274,3.916,31.626,3.442,5.126,7.446,20.8.208.457,8.694,3.439,2.986,5.029h9.682l-1.244-1.1-8.829-6.964-.688-7.061,1.753-3.825-4.352-5.456,2.057-5.76,1.8-2.052-3.674-2.758,4.827-1.224.174-4.918,8.24-2.4-1.806-8.752,1.259,0,7.857-4.506,5.262-9.342,3.645-12.953,8.877-3.622,5.306-5.023,5.325-24.353,3.654-4.983,2.683-9.215-3.1-5.237ZM918.589,154.243s-1.5,1.818-2.531,3.063c.155-5.12,3.587-9.383,6.971-9.982C921.7,149.418,918.589,154.243,918.589,154.243Zm15.433-5.228c-3.088-.914-3.853,1.809-4.807,2.936-.557-.61-1.051-1.143-1.539-1.682-.3-.61,2.111-1.97-.794-3.312C930.034,145.745,932.851,146.481,934.022,149.016Zm-10.209-8.894c1.82-.548,3.176,1.341,2.992,4-3.864-.213-7.542-.422-11.88-.666C918.178,142.21,920.947,140.985,923.813,140.122Z" transform="translate(-792.937 -61.271)" fill="#385dda"/>
          <path id="Контур_38" data-name="Контур 38" d="M1110.755,80.48l-2.581-1.719,10.534-7.245.624-4.132,14.064-5.141-.029-.919-19.78-3.1h-7.261l-2.043.437-9.812.477-14.9,1.535-18.619,2.133-12.27,3.744-6.664.866,5.6,5.027,4.592-.018,4.244.762,2.492,4.985L1058,81.553l4.594,1.328-.2.707-3.388-.479L1060.766,87l-2.71.856-3.472,4.074.971,9.9,1.775,3.262,1.552.784,3.871,1.224,4.166-.125,7.341-8.5,7.244-3.614,8.3-2.886,3.737-2.148,16.833-5.183Z" transform="translate(-835.981 -58.224)" fill="#385dda"/>
          <path id="Контур_39" data-name="Контур 39" d="M1380.672,241.59l2.173,5.743.963,1.1s1.534,3.732,3.017,7.362l.008.008c1.338,1.764,3.536,4.653,5.113,6.664v.008c.7.434,1.252.784,1.252.784l1.73-.034.273-1.739-1.236-3.8-5.939-9.654-4.354-8.019s.733-5.589,1.236-8.666c.553.895,1.286,1.994,1.286,1.994l5.888,5.112s1.832,1.517,3.153,2.573c.145.81.392,2.2.716,4.039l3.161-2.573,4.115-3.63,2.786-6.05-4.124-9.237-5.036-5.785-.042-4.09,4.072-3.511s2.327,1.654,3.528,2.582c-.349.111-.7.23-1.039.341-.469,1.295-1.236,3.885-1.236,3.885l2.42,1.713s2.377-2.514,2.6-4.593c-.647-.2-1.235-.392-1.807-.579.256-1.091.494-2.113.6-2.531,2.275-.988,6.015-2.471,6.015-2.471l6.843-3.042,6.646-11.044-.732-10.821s-3.937-8.035-9.245-9.714c2.284-2.011,4.158-3.655,6.2-5.445-2.591-.963-5.045-2.522-7.32-.63-1.807-1.2-3.34-2.224-4.636-3.094.9-1.193,3.067-4,3.067-4l1.585-.639.691,1.3,3.408,1.764,5.351,1,2.77,3.051s1.789.614,2.692.929c-.2.136-.4.264-.6.4.988,2.59,1.968,5.181,3.025,7.933,1.2-.426,3.153-1.125,3.153-1.125l1.661-5.044-1.661-2.471s-3.75-3.707-5.624-5.556a15.616,15.616,0,0,0,2.292-6.195l2.726-1.866,5.155-3.109,2.037-8.853-1.968-8.308s-1.091-1.772-1.619-2.675c.247-.205.486-.392.733-.588.749.963,2.249,2.914,2.249,2.914l7.038,10.591s1.389,1.432,1.918,1.96c.826-.843,1.38-1.405,1.908-1.934-1.585-1.773-3.247-3.647-5.147-5.794a1.516,1.516,0,0,0,1.2-2.257l-6.875-6.979-5.564-5.309c-.154.162-.3.324-.452.495.145.7.29,1.389.452,2.13-1.679-.741-4.738-2.037-4.738-2.037l-2.94-.093H1424.9l-3.937-2.531c.783-2.266,6.015-9.62,6.015-9.62l13.071.571s4.823.5,7.558-.767c-1.874-1.482-3.6-2.829-1.329-5.785,1.4.529,4.8,1.823,4.8,1.823s5.768-1.159,6.168-.63c-.391,2.173-.962,5.266-.962,5.266l-1.543,5.053s10.268,11.29,14.34,15.1V137s3.733-5.828,1-8.956c.724-.571,1.184-.929,1.7-1.346-.554-.776-.349-4.764-.349-4.764l-5.931-7.063s-2.8-1.824-3-4.312c1.278.2,4.985.2,4.985.2l7.379-2.718,5.01-2.956s2.011-.256,3.025-.409q.089-.588.18-1.175c-2.463-1.142-4.925-2.276-7.431-3.434.895-1.994,4.091-2.037,4.091-2.037l4.141,1.347s4.465,1,6.918,1.534a9.669,9.669,0,0,0-6.475-6.97l-5.683-1.108S1400.32,81.695,1395.8,81.457c-3.349-.179-7.3-2.761-10.149,1.482-2.625.051-9.475.5-10.276.682-.043.316-2.871-1.022-4.295-1.917-1.295-.809-9.543-2.794-12.322-3.067-.315-.026-.809-.034-.92.145-1.168,1.866-23.757.835-24.063.725,1.671-1.3,3.213-2.48,4.755-3.664-.06-.281-5.309-2.684-5.309-2.684l-14.06-2.19-20.714,5.1s-1.175,1.108-2.207,2.147c-1.857.239-4.414.572-7.234.938.486,1.159.732,1.746,1.193,2.863-3-.247-5.65-.46-8.572-.691-.307.614-.869,1.747-1.449,2.932-.963-1.347-2.726-3.6-2.726-3.6l-4.516.17-2.412,3.638s1,2.889,1.653,4.525c-.877-.341-30.743,3.843-30.743,3.843a14.088,14.088,0,0,1-2.905-.238c.451-.392.9-.776,1.559-1.338-2.1-1.831-4.124-1.491-6.238-.92.358,1.491.691,2.82.9,3.715-2.42,1.338-10.507,1.67-11.666,6.118-.971-1.534-1.636-2.6-2.3-3.664,2.83-.179,7.55-.58,7.55-.58s1.782-1.423,2.659-2.181c-.758-.792-2.283-2.3-2.283-2.3l-14.375-4.065-3.928-2.07-18.371,1.185-.393.264-10.566,9.859-7.728,5.666-4.985,10.327,5.292,2.2,4.243-2.309c.929,1.5,2.556,4.2,2.556,4.2l1.773,4.346,1.909,1.167,5.223-4.345,2.948-4.994.162-3.6.3-5.871,2.556-1.405,2.233-1.815s2.419-3.247,5.573-1.943c-1.713,1.372-4.9,3.885-4.9,3.885l-1.235,4.363,7.379,4.124s4.551-.809,6.834-1.193c.069.409.136.826.2,1.244-.954.2-6.714.545-6.714.545l-1.645,3.128s.366,1.491.664,2.778c-3.86-2.3-8.734,6.212-8.734,6.212l-7.149,1.056-5.939-1.432s-1.482-1.968-2.641-3.621c-.188,1.747-.333,3.153-.495,4.687-1.67-.733-1.5-3.894-1.5-3.894s.648-2.717.946-4.09c-.265-.188-.537-.375-.8-.562-1.219.852-3.631,2.573-3.631,2.573a47.949,47.949,0,0,0,.3,7.132c-4.184.554-10.285,5.428-10.285,5.428s-2.8,3.152-4.115,1.363c0-1.884-.077-4.09-.077-4.09s-4.388-5.768-6.8-8.853c2.258-.835,2.275-1.96,1.117-3.34h-2.233c.341-.6.622-1.083.9-1.577-3.638-2.113-5.215.716-7.055,2.837.23.955.733,2.829.733,2.829l2.122,3.315s2.1,1.517,3.161,2.25c-.111.281-.214.553-.316.835-1.082.443-2.172.895-2.6,1.074-.7,1.585-1.133,2.582-1.611,3.681.537.247,1.15.537,1.73.81-1.125,1.056-2.181,2.062-3.247,3.067.128.239.247.486.375.725,4.483-.9,8.956-2.173,13.941-1.747-2.173,2.607-4.4,2.863-6.953,1.687-.137,1.116-.23,1.84-.307,2.471l-6.449.341c-.086.3-.18.6-.273.9.8.656,2.42,1.926,2.42,1.926l4.592,8.955-2.394,1.951-9.876-.682-3.979,4.116-1.44,7.618a48.211,48.211,0,0,0,.929,6.041c2.121.12,4.806-.434,6.408,3.051l9.074-1.627,7.669-13.719,12.782-3.289s.869.69,2.233,1.755a3.548,3.548,0,0,0-.17,1.389l.051,1.269-.673,4.883.937,1.482,1.645-.749.733-2.31s-.2-2.1-.426-4.32c5.1,3.971,12.926,9.977,13.352,9.705.639-.4,2.147-4.7,2.147-4.7L1178.836,150.4l-.426-3.731,15.338,9.288,9.8,16.19,3.119-4.3L1203.121,160H1214.2v-5.539s8.095-12.142,8.095-13.634,14.059,0,14.059,0v7.882l11.29,7.669-6.6,4.473-8.733-1.943-17.469,3.647,2.131,10.49h18.32l-3.408,14.946-11.93,1.193-17.468-6.4h-5.539v7.677l-9.8-8.947h-10.353s-.725-7.243-.017-8.095-21.583,0-21.583,0l-8.564,2.556s-4.15.273-7.26.281c-6.365,8.163-19.522,25.793-19.522,25.793l-.366.307-4.1,7.012,1.04,4.661s.034,9.586-2.344,13.114c.367,1.823,18.857,26.713,18.857,26.713l21.259-1.644,3.835-1.517L1168.6,255.5l3.605-.2,3.885,2.956-.4,14.051,7.4,13.071,2.428,11.392-4.805,13.463.375,4.849,5.274,10.182,8.5,26.5-.23.672,4.9,6.025,9.279-1.279,16.506-12.653,3.357-8.138,5.863-5.862.409-11.707,7.958-6.434,4.943-7.609-3.28-24.2L1256,264.23l8.266-7.558s5.146-9.543,7.234-14.553c.861-2.088.562-4.7.818-7.268-5.019,1.185-9.484,2.173-13.915,3.289a3.25,3.25,0,0,1-4.167-2.258c-1-4.286-3.689-7.072-7.277-9.032a6.019,6.019,0,0,1-2.888-4.056c-.52-1.73-14.367-29.491-14.367-29.491a15.843,15.843,0,0,0,2.506-1.466c2.3,3.741,13.147,22.282,13.147,22.282a88.912,88.912,0,0,1,5.939,9.015c1.133,2.241,1.951,7.515,1.951,7.515s2.335,3.571,5.079,2.318c4-1.831,12.159-5.147,12.159-5.147l15.814-11.554,2.4-4.763-2.718-7.763-4.184-3.961s-.733-1.773-1.167-2.864c-1.415,1.824-3.979,4.891-3.979,4.891s-3.715.656-5.794.937a6.319,6.319,0,0,0-1.636-5.445l-6.178-6.749,2.633-2.769,2.71,3.382,11.972,5.309,2.027.656,3.554,2.573,15.3.579,3.289.639,9.927,10.949s2.922-.128,4.533-.264c.128.715,8.189,24.071,8.189,24.071l3.63,7.984,3.2.784,4.252-8.231.213-1.218.366-7.447.315-1.985,17.366-16.207s3.229-.759,4.89-1.151c1.083,1.594,3.443,4.951,3.443,4.951s5.335,6.749,4.687,11.469c2.786,1.884,4.771.308,6.706-1.388C1380.4,231.263,1380.672,241.59,1380.672,241.59Zm-104.057-68.807-11.077-4.209,2.769-8.572-9.8-8.521,13.318-7.882,1.168,1.491-3.835,5.308,8.948,18.176Z" transform="translate(-848.435 -60.426)" fill="#385dda"/>
          <path id="Контур_40" data-name="Контур 40" d="M1453.612,316.392l-2.145-7.01L1449,305.511l-.993-1.376v.142l-5.664-5.669c-2.892-1.957-8.014-7.458-8.014-7.458s-3.022-.636-6.63-1.671c1.089,1.763,2.754,4.369,2.754,4.369l6.869,9.621.32.676,10.384,14.162s3.059,2.336,5.068,1.066C1453.273,318.378,1453.612,316.392,1453.612,316.392Z" transform="translate(-902.635 -98.188)" fill="#385dda"/>
          <path id="Контур_41" data-name="Контур 41" d="M1559.624,378.2l-5.358-10.714-1.688-2.4-2.984-7.067-.355-2.75s-.995-4.395-3.09-4.855c-.711-3.242-1.352-6.162-1.993-9.082l-.835.041c-.682,1.5-2.02,4.524-2.02,4.524l-3.709,11.463-3.089,1.069-3.86-3.037-1.057-7.257.391-.639-1.386-2.718-6.54-1.437-3.023-.7.912,2.8-2.294-.29c.107-.711.184-1.216.309-2.053l-2.5.529.818,1.431-5.158,7.276c-.313-.256-1.427-1.2-1.427-1.2l-4.439-1.12-3.4,2.887s-2.8,2.829-4.267,4.328l-1.45-1.239c-.643,1.473-1.745,3.982-1.745,3.982l-5.512,5.478-12.845,5.1-2.513,1.626-2.042,8.169-.362.762-.92,2.992,1.271,10.189-2.281,7.624.236,3.43,7.58-.369,3.683-1.539,9.931-2.474.681-.244,12.817-3.406,7.988,5.827s.736,1.88,1.151,2.9l4.612-3.405c-1.23,2.137-2.261,3.932-3.312,5.756l4.932-.423c-.209,1.6-.444,3.746-.444,3.746l.795,2.389,14.041,1.419,8.689-4.8,9.91-10.9,7.456-12.495s.87-5.227,1.208-7.523C1560.62,379.271,1559.624,378.2,1559.624,378.2Z" transform="translate(-909.804 -107.15)" fill="#385dda"/>
          <path id="Контур_42" data-name="Контур 42" d="M1540.151,311.669c-.538,1.572-.96,2.8-1.382,4.037l-.9-.045c-.463-1.3-1.435-3.869-1.435-3.869l-2.543-2.942-6.236-1.182s-.294.328-.566.637l1.286.793-2.016,2.871,6.008,1.488q-.071.4-.143.806l-1.974.9c.975,1.532,1.859,2.922,3.045,4.786l1.121-1.944c2.671,1.161,7.4,3.222,7.4,3.222l1.946,6.579s-.648,1.471-1.256,2.888l5.388-1.131c.992.772,3.181,2.432,3.181,2.432l5.67-1.378,5.764-.138,1.38,2.071,8.695,3.452s.556-.495.85-.773l-8.078-8.659,2.822-1.787c-1.337-.968-3.243-2.364-3.243-2.364l-2.215-2.02-2.791-2.727S1546.982,310.848,1540.151,311.669Z" transform="translate(-919.685 -101.332)" fill="#385dda"/>
          <path id="Контур_43" data-name="Контур 43" d="M1485.273,285.755l-8.849,9-.68.194-3.942,2.936-1.354.578-3.236,3.7,2.419,7.829,6.01,3.019,3.976.8,4.766-1.851s2.48-8.264,5.972-10.8c-.739-1.85-2.183-5.553-2.183-5.553l.941-3.086-.42-2.686-1.469-5.28Z" transform="translate(-909.463 -97.335)" fill="#385dda"/>
          <path id="Контур_44" data-name="Контур 44" d="M1294.919,347.762l-8.807,8.567-2.824,4.234.026,4.038-1.063,4.661-.387,10.143,1.578,1.78,7.43-2.939,4.655-12.972,3.456-10.553s-.519-6.317-2.906-9.3C1295.569,346.464,1294.919,347.762,1294.919,347.762Z" transform="translate(-877.432 -107.856)" fill="#385dda"/>
          <path id="Контур_45" data-name="Контур 45" d="M1519.119,185.257l-3.511,2.731L1510.2,191.4s-1.464,2.6-2.037,3.611c1.036,1.644,2.871,4.482,2.871,4.482l1.644,1.075,1.573-1.989s.059-1.769.059-2.05l4.774-2.707c1.186-.113,3.271-.4,3.271-.4l5.918-3.112,1.506-2.331-1.568-7.122-4.818-7.7s-1.067-1.21-1.591-1.833l.446-.354,3.511,1.216,4.51-3.523c-1.105-1.094-3.075-2.942-3.075-2.942l-7.385-2.678s-1.319-.332-2.261-.562c.92,1.936,1.666,3.5,2.123,4.462-.592,1.249-1.178,2.637-1.178,2.637l1.922,3.606,2.4,8.918-2.463,2.027Z" transform="translate(-916.54 -76.242)" fill="#385dda"/>
          <path id="Контур_46" data-name="Контур 46" d="M1486.6,334.5l.9.72s2.876,2.107,4.3,3.15l.642-.475-1.613-2.931,6.066-1.127q-.052-.414-.1-.829c-3.3-.258-9.885-.621-9.885-.621s-7.047-.835-10.571-1.5v-1.971c-2.306-.423-6.559-1.189-6.559-1.189l-1.118.082-4.21.088-2.9-1.2s-3.847-.3-4.737,2.539c.765.344,2.063.912,2.063.912l17.838,3.582Z" transform="translate(-907.667 -104.62)" fill="#385dda"/>
          <path id="Контур_47" data-name="Контур 47" d="M952.379,246.947l6.968.7,5.218-.818,1.8-.786-1.344-1.779L958.937,242l-12.987-5.513-6.074-2.965L929.7,237.964l9.41-1.143,7.242,5.616,5.989.829,4.16,1.88-4.011.563Z" transform="translate(-816.572 -88.518)" fill="#385dda"/>
          <path id="Контур_48" data-name="Контур 48" d="M1496.1,319.516s.518,1.691.787,2.534c.619-.63,1.781-1.91,1.781-1.91s.352-3.29.49-4.945c.042,3.629,2.977,4.393,5.18,6.24.92-3.688-.756-6.434-2.026-9.215l3.917-3.5-.456-.759-6.341,1.014c-.1-.435-.385-2.187-.385-2.187l2.305-.811,3.574.371,4.832-3.156-.413-1.552-1.028.155-5.63,1.252-6.246,4.33-1.155,4.875.553,4.7Z" transform="translate(-914.315 -100.289)" fill="#385dda"/>
          <path id="Контур_49" data-name="Контур 49" d="M1496.887,264.09s1.3.707,1.972,1.042v-3.9c1.706.084,3.907,2.859,3.907,2.859l1.493,1.644,1.678.833-.246.831-2.531-.254s-1.615-.753-2.878-1.369c.238,1.542.577,3.467.577,3.467l1.252,1.774s.94,1.505,1.72,2.767c.886-1.864,1.469-3.087,1.927-4.052l3.02,1.5c.081-1.151.189-3.6.189-3.6l-2.092-3.9-1.776-1.658-3.686-2.908-2.151-3.823-.109-5.66s-2.3-1.157-3.5-1.7c-.344.866-.994,2.606-.994,2.606l-.055,2.761-.559,4.067s1.652,2,2.632,3.08C1494.73,261.684,1496.887,264.09,1496.887,264.09Z" transform="translate(-914.1 -91.018)" fill="#385dda"/>
          <path id="Контур_50" data-name="Контур 50" d="M1598.84,439.65l-9.33,5.49-8.093,4.4s-1.175,1.355-2.113,2.489c1.742.4,4.034.88,4.034.88l9.018-4.262,3.3-1.8,10.09-7.256s.476-1.155.607-1.5C1603.1,435.472,1598.84,439.65,1598.84,439.65Z" transform="translate(-928.835 -123.722)" fill="#385dda"/>
          <path id="Контур_51" data-name="Контур 51" d="M1625.583,425.485l-3.652-3.462s-.5-3.642-1.947-4.922a3.741,3.741,0,0,0-1.293,3.272l-3.924,8.99s-.783.76-1.307,1.285c3.044,2.131-.489,3.533-.454,5.622,2.74-.3,6.659-3.375,6.659-3.375l4.439-3.708s2.2-2.032,3.3-3.051l-.494-.662C1626.468,425.475,1625.583,425.485,1625.583,425.485Z" transform="translate(-934.659 -120.244)" fill="#385dda"/>
          <path id="Контур_52" data-name="Контур 52" d="M1136.719,103.088c-1.7-2.133-5.459-2.687-5.459-2.687l-7.14.854-1.233-.452s-3.967-.822-5.782,1.906h2.84v3.65C1126.249,108.644,1131.4,106.348,1136.719,103.088Z" transform="translate(-848.959 -65.513)" fill="#385dda"/>
          <path id="Контур_53" data-name="Контур 53" d="M1605.329,330.571l-7.553-1.586c-.63-1.012-1.633-2.593-1.633-2.593l-1.07-1s-7.647-6.3-11.473-9.456l-.635.625c1.17,1.3,1.2,4.442,1.2,4.442l-3.071,2.1s-2.774.525-4.227.767c2.208,3.666,5.625,2.908,10.309-2.568l7.955,6.5c.046.872.1,1.938.2,3.729,1.915-2.329,4.024,2.82,6-1.281a16.842,16.842,0,0,1,1.132,3.176l.682,1.846s1.441-.3,2.205-.514c.716,2.635.716,2.635,2.63,2.927Q1606.595,333.961,1605.329,330.571Z" transform="translate(-928.414 -102.761)" fill="#385dda"/>
          <path id="Контур_54" data-name="Контур 54" d="M950.57,75.522l-.357.631,1.857,1.108,14.683.007,3.266-2.05-.4-.613-2.67-.61-2.759-.041-5.292-.24-9.253-1.647-5.994,1.8.169,1Z" transform="translate(-818.983 -60.616)" fill="#385dda"/>
          <path id="Контур_55" data-name="Контур 55" d="M1150.335,136.572s.576-2,.882-2.992c-1.314-.38-3.937-1.024-3.937-1.024l-2.626,1.8s-3.068,1.921-1.958,4.143l-2.052,1.557,1.913,2.936C1145.209,140.713,1150.335,136.572,1150.335,136.572Z" transform="translate(-853.027 -71.07)" fill="#385dda"/>
          <path id="Контур_56" data-name="Контур 56" d="M1511.871,276.217c.021-.033.041-.065.061-.1l-.025.026.026-.026-.078-.039c0,.043-.005.086-.01.129C1511.853,276.211,1511.862,276.216,1511.871,276.217Z" transform="translate(-917.176 -95.873)" fill="#385dda"/>
          <path id="Контур_57" data-name="Контур 57" d="M1502.964,284.055c.545-.2,1.52-.569,1.52-.569l3.111,1.059s2.332,2.523,3.49,3.682l2.38-4.438s-1.05-7.149-3.129-7.543l-2.1,3.342C1504.553,278.846,1502.872,280.269,1502.964,284.055Z" transform="translate(-915.641 -95.902)" fill="#385dda"/>
          <path id="Контур_58" data-name="Контур 58" d="M1521.377,315.6s2.343.27,3.58.4c.056-.221.152-.677.152-.677l-.362-.9-6-.519-2.378-.271s-.926-3.3.591-4.588l1.922,2.07c.15-2.244.268-3.989.408-6.072,2.47-2.249,2.47-2.249.929-3.75.2-.865.367-1.573.532-2.281l-.845-.438c-.849,1.514-2.407,4.54-2.407,4.54l-5.443,6.782s-.936.364-1.864.736l4.558,2.6c-.105,1.2-.213,2.587-.213,2.587l3.583.445Z" transform="translate(-916.891 -99.762)" fill="#385dda"/>
          <path id="Контур_59" data-name="Контур 59" d="M1534.689,439.251l-.825,3.409,1.959,2.708s7.7-4.048,7.344-8.178c-1.865,0-5.345-.1-5.345-.1Z" transform="translate(-920.982 -123.699)" fill="#385dda"/>
          <path id="Контур_60" data-name="Контур 60" d="M1010.43,69.509l7.077-1.364,2.069-1.039L1007.5,65.745l-1.833,1.614,1.93,2.026Z" transform="translate(-829.701 -59.523)" fill="#385dda"/>
          <path id="Контур_61" data-name="Контур 61" d="M1385.108,276.686c0,2.859.1,8.226.1,8.226l2,2.4,3.475-3.221S1387.991,277.584,1385.108,276.686Z" transform="translate(-895.274 -95.978)" fill="#385dda"/>
          <path id="Контур_62" data-name="Контур 62" d="M989.46,68.763l6.5,1.706-3.525.308-.107.851,4.253,1.71-.449,1.872,13.351,1.081,5.655-3.6,4.925-1.439,5.507-2.406,26.414-6.79,2.2-.974-.174-.94-40.7,2.642,4.443,1.848-2.651,3.119-2.834.578-9.508,3.842-2.4-.935-4.436-.791-.018-.011,4.231-1.168-.08-.9L988.1,65.745l-1.12,1.028.484,1.24Z" transform="translate(-826.471 -58.555)" fill="#385dda"/>
          <path id="Контур_63" data-name="Контур 63" d="M1637.994,278.885l-.429.327v3.936c-1.086-.256-2.627-.612-2.627-.612s-1.644-.214-2.418-.311c-1.5-4.767-1.562-4.837-4.149-4.392.912.829,2.343,2.237,2.343,2.237s2.038,3.5,4.246,3.713c.11,1.381.208,2.61.307,3.838l.623-.056v-3.706c3.71-.687,4.088,2.966,6,4.608-.37-1.918-1.49-5.5-1.49-5.5S1638.811,280.239,1637.994,278.885Z" transform="translate(-937.314 -96.146)" fill="#385dda"/>
          <path id="Контур_64" data-name="Контур 64" d="M989.2,73.889l-.216-.8-7.221.753-4.659.927,10.5,1.317Z" transform="translate(-824.764 -60.792)" fill="#385dda"/>
          <path id="Контур_65" data-name="Контур 65" d="M989.814,76.694l-.026.011-.055.075Z" transform="translate(-826.947 -61.416)" fill="#385dda"/>
          <path id="Контур_66" data-name="Контур 66" d="M1493.63,236.07c.561-2.78,1.462-7.618,1.462-7.618l-1.3-1.461-2.039.657S1490.489,233.843,1493.63,236.07Z" transform="translate(-913.661 -87.389)" fill="#385dda"/>
          <path id="Контур_67" data-name="Контур 67" d="M1515.6,334.688c.014-.221.028-.442.041-.663-1.136-.069-3.381-.128-3.381-.128l-5.066,2.748s-.52,1.5-.757,2.289c.628.156,1.854.41,1.854.41S1513.172,336.259,1515.6,334.688Z" transform="translate(-916.241 -105.865)" fill="#385dda"/>
          <path id="Контур_68" data-name="Контур 68" d="M1654.924,360.934l-2,.974-1.494,1.285.766,1.609,2.6.353s.443-1.4.7-2.357l3.764-3.5A6.431,6.431,0,0,0,1654.924,360.934Z" transform="translate(-941.299 -110.25)" fill="#385dda"/>
          <path id="Контур_69" data-name="Контур 69" d="M1651.457,308.787c-1.033-2.783-4.878-4.189-3.33-8.627-1.145.609-2.061,1.137-2.061,1.137l.443,3.05s2.79,3.387,4.216,5.057Z" transform="translate(-940.372 -100.034)" fill="#385dda"/>
          <path id="Контур_70" data-name="Контур 70" d="M949.635,227.232l-.109,3.668,4.927-4.071-1.212-1.1Z" transform="translate(-819.998 -87.171)" fill="#385dda"/>
          <path id="Контур_71" data-name="Контур 71" d="M978.531,250.4l2.763-1.107-2.392-1.178-1.936.844Z" transform="translate(-824.74 -91.041)" fill="#385dda"/>
          <path id="Контур_72" data-name="Контур 72" d="M1655.612,313.144l.363-.012s.629-.744.938-1.121c-.587-.047-1.754-.108-1.754-.108s-.956.448-1.43.689C1654.656,314.469,1655.612,313.144,1655.612,313.144Z" transform="translate(-941.696 -102.064)" fill="#385dda"/>
        </g>
      </g>
      <g id="Сгруппировать_20" data-name="Сгруппировать 20" transform="translate(12.27 52.307)">
        <g id="Сгруппировать_19" data-name="Сгруппировать 19">
          <path id="Контур_73" data-name="Контур 73" d="M1004.566,62.681l.106-.016-.025-.072Z" transform="translate(-841.78 -47.314)" fill="#003db4"/>
          <path id="Контур_74" data-name="Контур 74" d="M1025.093,263.306l-26.232-10.413-2.978-7.279L975.3,230.755l-2.057-4.572-.3-1.462L948.682,224l-.223-.32-1.022-2.946-5.577,2.717-6.153,7.442-7.741-2.133-4.647-.5-2.314-4.9,1.825-8.372-.14-1.889-5.684-1.955-6.124.639,3.394-7.436,2.594-7.335-6.506-.371-2.6,2.159-6.879,5.3-5.766-2.1-1.888-4.846,3.233-16.061.281-.4,12.624-4.749,6.037.807.145-2.434,3.747-.385,9.164,4.617,3.084,8.843,3.321-5.6-.838-4.978,1.917-7.163L950,158.058l6.225-9.413,5.121-3.444,6.327-5.11s8.138-4.252,12.208-6.37c.1.208.193.422.285.635a14.476,14.476,0,0,0-2.692,4.389c.716-.092,2.1-.32,2.1-.32l5.281-2.611s3.108-1.142,4.657-1.732a11.056,11.056,0,0,0-3.209-1.8l-1.505-5.507,1.6-1.595c-1.8-2.788-4.3-1.711-7.275-1.3,1.534-.849,3.354-1.783,3.354-1.783l9.391-.112,6.6-1.646s2.406-1.184,3.612-1.763c.093.183.184.371.276.558-2.692,3.018-5.378,6.035-8.108,9.1.406.3.793.579.793.579l10.762,1.544,2.183-1.9s.107-3.556.107-5.679h-4.449c.721-1.585,1.9-4.16,1.9-4.16l.025-7.193-2.836-2.616S999.5,99.4,998.866,95.8c-1.587,1.113-6.709,4.252-6.709,4.252l-2.619-.568.087-2.429-.915-3.134L981.671,90.9,974.7,95.054l-3.05,4.1-2.4,7.2-4.569,2.266-4.236,7.03s-2.3,1.391-3.495,2.052c-.2-1.4-.518-4.206-.518-4.206l1.331-2.662s.582-1.148.94-1.864c-1.008-.3-2.658-.8-2.658-.8s-10.374-5.318-13.41-4.724c.33-1.244.6-2.281.872-3.307-.6-.356-1.089-.65-2.319-1.386,3.272-2.337,8.94-6.273,8.94-6.273l11.909-5.268,3.587-1.808.223.275-2.164,2.621,3.969.706,7.581-.9-3.79-5.222-.132-.747,7.189-1.331,4.124-6.192,11.85,4.557-3.805,2.946-6.2,1.636-3.626,3.257,6.221.243,2.653,1.524,8.631,3.927-.591-1.941L1002.812,89l-1.6-6.462,3.214,1.7,4.212.635,1.743-1.362-.606-4.76-3.911-1.854-1.39-5.867-6.656-2.673L992.2,65.718l.5,2.484-.658.265-1.162-2.413-5.257-.046L975.983,67.5l-.407.579,1.133,6.482-6.651,5.45.572-4.079-2.851-.163.063-5.78,1.346-.859,6.758-1.676,1.467-2.057-2.673-.5.988-3.14L971.3,64.423l-7.072,5.8-.184-.325,2.246-4.439-10.534,2.52,5.606,3.241L959.3,73.749l1.472,2.424-4.681,2.342-.383-.792.726-.483,2.067-1.519-2.74-1.509-5.077,1.808,2.013,1.52-9.647.106,7.717-2.6.208-2.382-1.065-.741.561-5.126-5.184.879-6.782-.5-3.21-2.555-7.13-.538-11.686,4.42,2.938,2.956,5.955-1.458.615.595-2.362,5.43-3.432-.671-7.731-1.179-5.175-1.361L890.9,75.35l-9.958-2.2-8.35-.879-23.12.849L839.3,76.1s-1.984.782-3.123,1.244l2.281,4.252-10.582,1-2.958,4.226h6.39l-1.8,1.224L818.294,91.8l-4.057,3.439,1.414,3.535-.513,1.884h5.431l.1.381-12.9,6.3.087.726,4.314-.411,22.945-9.789L834.97,99.7l10.006-3.794,11,1.61,3.238,1.8,3.074,13-.227,4.531-.184,3.576h-2.489l1.831,3.683.576,4.186-11.081,17.393-1.462,5.186.692,6.9,5.94,10.963,1.757,10.378.14,3.845,3.021,5.034.334.625,4.319,4.313.45-2.824-5.485-15.021-.494-4.47,3.287,2.971.251,2.961,7.121,12.918,2.865,9.733,1.293,3.688,16.338,8.945,3.006.031,19.426,9.666,2.784,2.311,1.433,4.684,7.619,5.009,4.822-2.87,2.174,2,1.205,3.262-1.433,9.519-4.735,5.547-.232.422-1.51,18.933,28.111,38.58.857,22.275,3.916,31.626,3.442,5.125,7.445,20.8.208.457,8.694,3.439,2.987,5.028h9.681l-1.244-1.1-8.829-6.964-.688-7.061,1.753-3.826-4.352-5.455,2.057-5.761,1.8-2.052L977.8,362.7l4.826-1.223.174-4.918,8.239-2.4-1.806-8.753,1.259.006,7.857-4.506,5.263-9.342,3.645-12.953,8.878-3.622,5.306-5.024,5.325-24.353,3.655-4.983,2.682-9.215-3.1-5.237Zm-91.67-123.163s-1.5,1.818-2.532,3.063c.155-5.121,3.588-9.383,6.971-9.982C936.531,135.317,933.423,140.142,933.423,140.142Zm15.432-5.228c-3.088-.914-3.853,1.809-4.807,2.936-.557-.61-1.051-1.143-1.539-1.682-.3-.61,2.111-1.971-.794-3.312C944.867,131.644,947.684,132.38,948.855,134.915Zm-10.209-8.895c1.82-.548,3.176,1.342,2.992,4-3.863-.213-7.542-.421-11.88-.665C933.012,128.108,935.781,126.884,938.646,126.02Z" transform="translate(-807.77 -47.17)" fill="#003db4"/>
          <path id="Контур_75" data-name="Контур 75" d="M1125.589,66.378l-2.581-1.719,10.534-7.245.624-4.132,14.064-5.141-.029-.919-19.78-3.1h-7.261l-2.043.437-9.813.477-14.9,1.535L1075.78,48.7l-12.27,3.744-6.664.866,5.6,5.027,4.592-.018,4.244.762,2.492,4.985-.938,3.381,4.593,1.328-.2.707-3.388-.479L1075.6,72.9l-2.71.856-3.472,4.074.971,9.9,1.775,3.262,1.552.784,3.871,1.224,4.166-.125,7.341-8.5,7.245-3.614,8.3-2.886,3.737-2.148,16.833-5.183Z" transform="translate(-850.815 -44.122)" fill="#003db4"/>
          <path id="Контур_76" data-name="Контур 76" d="M1395.506,227.489l2.173,5.743.962,1.1s1.535,3.732,3.017,7.362l.008.008c1.338,1.764,3.536,4.653,5.113,6.664v.008c.7.434,1.253.784,1.253.784l1.729-.034.273-1.739-1.236-3.8-5.939-9.654-4.354-8.019s.732-5.589,1.235-8.666c.553.9,1.287,1.994,1.287,1.994l5.888,5.112s1.831,1.517,3.152,2.573c.145.81.392,2.2.716,4.039l3.161-2.573,4.116-3.63,2.786-6.05-4.124-9.237-5.035-5.785-.043-4.09,4.073-3.511s2.326,1.654,3.527,2.582c-.349.112-.7.231-1.039.342-.469,1.294-1.236,3.885-1.236,3.885l2.419,1.713s2.378-2.514,2.6-4.593c-.648-.2-1.235-.392-1.806-.579.255-1.091.494-2.113.6-2.531,2.275-.988,6.015-2.471,6.015-2.471l6.843-3.042,6.646-11.043-.733-10.821s-3.937-8.035-9.246-9.714c2.284-2.011,4.158-3.655,6.2-5.445-2.591-.963-5.044-2.522-7.32-.63-1.806-1.2-3.34-2.224-4.635-3.094.9-1.193,3.067-4,3.067-4L1429.2,146l.691,1.3,3.408,1.764,5.352,1,2.769,3.051s1.789.614,2.693.929c-.205.136-.4.264-.6.4.988,2.59,1.968,5.181,3.025,7.933,1.2-.426,3.153-1.125,3.153-1.125l1.661-5.044-1.661-2.471s-3.75-3.707-5.624-5.556a15.612,15.612,0,0,0,2.292-6.195l2.726-1.866,5.155-3.11,2.037-8.853-1.968-8.308s-1.091-1.772-1.619-2.675c.247-.205.486-.392.733-.588.749.963,2.249,2.914,2.249,2.914l7.039,10.591s1.389,1.431,1.917,1.96c.826-.843,1.38-1.405,1.908-1.934-1.585-1.773-3.247-3.647-5.147-5.794a1.516,1.516,0,0,0,1.2-2.257l-6.876-6.979-5.564-5.309c-.153.162-.3.323-.452.495.145.7.289,1.389.452,2.13-1.679-.741-4.738-2.037-4.738-2.037l-2.939-.093h-2.744l-3.937-2.531c.783-2.266,6.015-9.62,6.015-9.62l13.071.571s4.823.5,7.558-.767c-1.874-1.482-3.6-2.829-1.328-5.785,1.4.528,4.8,1.823,4.8,1.823s5.769-1.159,6.169-.63c-.392,2.173-.963,5.266-.963,5.266l-1.542,5.053s10.267,11.29,14.34,15.1v4.141s3.732-5.828,1-8.955c.725-.571,1.185-.929,1.7-1.346-.554-.776-.349-4.764-.349-4.764l-5.93-7.063s-2.8-1.824-3-4.312c1.278.2,4.985.2,4.985.2l7.379-2.718,5.01-2.956s2.01-.256,3.024-.409c.06-.392.12-.783.179-1.176-2.462-1.142-4.925-2.275-7.43-3.434.895-1.994,4.09-2.037,4.09-2.037l4.141,1.347s4.465,1,6.919,1.534a9.669,9.669,0,0,0-6.475-6.97l-5.683-1.108s-78.324-11.128-82.849-11.366c-3.349-.179-7.3-2.761-10.148,1.482-2.625.051-9.476.5-10.277.682-.042.315-2.871-1.022-4.295-1.917-1.295-.809-9.543-2.794-12.321-3.067-.315-.026-.81-.034-.921.145-1.167,1.866-23.757.835-24.063.725,1.67-1.3,3.212-2.48,4.755-3.664-.06-.281-5.309-2.684-5.309-2.684l-14.059-2.19-20.714,5.1s-1.176,1.108-2.207,2.147c-1.857.239-4.414.571-7.234.937.486,1.159.732,1.747,1.193,2.864-3-.247-5.65-.461-8.572-.691-.307.614-.869,1.747-1.448,2.932-.964-1.347-2.727-3.6-2.727-3.6l-4.516.171-2.412,3.638s1,2.889,1.653,4.525c-.877-.341-30.743,3.843-30.743,3.843a14.151,14.151,0,0,1-2.906-.238c.452-.393.9-.776,1.559-1.338-2.1-1.832-4.124-1.491-6.238-.921.358,1.491.691,2.821.9,3.716-2.42,1.338-10.507,1.67-11.666,6.118-.971-1.534-1.636-2.6-2.3-3.664,2.829-.179,7.55-.579,7.55-.579s1.781-1.423,2.659-2.181c-.758-.792-2.284-2.3-2.284-2.3l-14.375-4.065-3.928-2.07-18.371,1.185-.392.264-10.565,9.859-7.729,5.666L1183.2,98.508l5.291,2.2,4.244-2.309c.929,1.5,2.556,4.2,2.556,4.2l1.772,4.346,1.91,1.167,5.223-4.345,2.949-4.994.162-3.6.3-5.871,2.556-1.405,2.233-1.816s2.42-3.246,5.573-1.942c-1.713,1.372-4.9,3.885-4.9,3.885l-1.236,4.363,7.379,4.124s4.55-.809,6.834-1.193c.068.409.136.826.2,1.244-.954.2-6.714.545-6.714.545l-1.645,3.128s.367,1.491.664,2.778c-3.859-2.3-8.733,6.211-8.733,6.211l-7.149,1.057-5.939-1.432s-1.483-1.968-2.642-3.621c-.188,1.747-.332,3.153-.495,4.687-1.669-.733-1.5-3.894-1.5-3.894s.647-2.718.945-4.09c-.264-.188-.537-.376-.8-.562-1.219.852-3.63,2.573-3.63,2.573a48.052,48.052,0,0,0,.3,7.132c-4.184.553-10.284,5.428-10.284,5.428s-2.8,3.152-4.116,1.363c0-1.883-.076-4.09-.076-4.09s-4.389-5.768-6.8-8.853c2.258-.835,2.275-1.96,1.117-3.34h-2.233c.342-.6.623-1.082.9-1.576-3.638-2.113-5.215.716-7.055,2.837.23.955.733,2.829.733,2.829l2.122,3.315s2.1,1.517,3.161,2.25c-.111.281-.214.553-.315.835-1.083.443-2.173.9-2.6,1.074-.7,1.585-1.133,2.582-1.611,3.681.537.247,1.151.537,1.73.81-1.125,1.056-2.181,2.062-3.247,3.067.128.239.247.486.375.725,4.483-.9,8.956-2.173,13.941-1.747-2.173,2.607-4.4,2.863-6.953,1.687-.137,1.116-.23,1.84-.307,2.471l-6.45.341c-.085.3-.18.6-.273.9.8.656,2.42,1.926,2.42,1.926l4.593,8.955-2.395,1.951-9.876-.682-3.979,4.116-1.439,7.618a48.219,48.219,0,0,0,.929,6.041c2.122.119,4.805-.434,6.407,3.051l9.075-1.628,7.669-13.718,12.781-3.289s.87.69,2.234,1.754a3.545,3.545,0,0,0-.171,1.39l.051,1.269-.672,4.883.937,1.482,1.644-.749.733-2.309s-.2-2.1-.425-4.32c5.1,3.97,12.926,9.977,13.352,9.705.639-.4,2.148-4.7,2.148-4.7L1193.67,136.3l-.426-3.732,15.338,9.288,9.8,16.19,3.118-4.3-3.545-7.839h11.077v-5.539s8.1-12.142,8.1-13.634,14.059,0,14.059,0v7.882l11.29,7.669-6.6,4.473-8.734-1.943-17.469,3.647,2.131,10.49h18.32l-3.408,14.946-11.93,1.193-17.467-6.4h-5.539v7.677l-9.8-8.947h-10.353s-.725-7.243-.017-8.095-21.583,0-21.583,0l-8.564,2.556s-4.15.273-7.26.281c-6.364,8.163-19.521,25.793-19.521,25.793l-.366.307-4.1,7.012,1.04,4.661s.034,9.586-2.343,13.114c.366,1.823,18.856,26.713,18.856,26.713l21.26-1.644,3.834-1.517,10.575,4.806,3.6-.2,3.886,2.956-.4,14.051,7.4,13.071,2.429,11.392-4.806,13.463.375,4.848,5.275,10.183,8.5,26.5-.23.673,4.9,6.025,9.279-1.279,16.506-12.653,3.358-8.138,5.862-5.862.409-11.708,7.959-6.433,4.942-7.609-3.28-24.2,11.435-16.352,8.265-7.558s5.147-9.543,7.235-14.553c.86-2.088.562-4.7.817-7.268-5.019,1.185-9.484,2.173-13.914,3.289a3.249,3.249,0,0,1-4.167-2.258c-1-4.286-3.689-7.072-7.277-9.032a6.018,6.018,0,0,1-2.889-4.056c-.52-1.73-14.366-29.492-14.366-29.492a15.8,15.8,0,0,0,2.506-1.465c2.3,3.74,13.148,22.282,13.148,22.282a88.912,88.912,0,0,1,5.938,9.015c1.133,2.241,1.951,7.515,1.951,7.515s2.335,3.571,5.079,2.318c4-1.832,12.159-5.147,12.159-5.147l15.815-11.554,2.4-4.763-2.718-7.763-4.183-3.961s-.734-1.773-1.168-2.864c-1.414,1.824-3.979,4.891-3.979,4.891s-3.715.656-5.794.937a6.316,6.316,0,0,0-1.636-5.445l-6.177-6.749,2.633-2.769,2.71,3.383,11.971,5.309,2.028.656,3.553,2.573,15.3.579,3.289.639,9.926,10.949s2.923-.128,4.533-.265c.128.716,8.189,24.072,8.189,24.072l3.63,7.984,3.2.784,4.253-8.231.213-1.218.366-7.447.315-1.986,17.366-16.206s3.229-.759,4.891-1.151c1.082,1.593,3.442,4.951,3.442,4.951s5.335,6.749,4.688,11.469c2.786,1.883,4.771.307,6.705-1.388C1395.232,217.162,1395.506,227.489,1395.506,227.489Zm-104.058-68.807-11.078-4.209,2.769-8.572-9.8-8.521,13.318-7.882,1.167,1.491-3.835,5.308,8.948,18.176Z" transform="translate(-863.269 -46.325)" fill="#003db4"/>
          <path id="Контур_77" data-name="Контур 77" d="M1468.445,302.291l-2.144-7.01-2.464-3.871-.993-1.376v.142l-5.663-5.669c-2.892-1.957-8.014-7.458-8.014-7.458s-3.022-.636-6.63-1.671c1.089,1.763,2.754,4.369,2.754,4.369l6.87,9.621.319.675,10.384,14.163s3.059,2.336,5.068,1.066C1468.107,304.277,1468.445,302.291,1468.445,302.291Z" transform="translate(-917.469 -84.087)" fill="#003db4"/>
          <path id="Контур_78" data-name="Контур 78" d="M1574.457,364.1l-5.358-10.715-1.688-2.4-2.983-7.067-.356-2.75s-1-4.395-3.089-4.855c-.712-3.242-1.353-6.162-1.994-9.082l-.835.041c-.682,1.505-2.02,4.525-2.02,4.525l-3.709,11.462-3.088,1.07-3.861-3.037-1.058-7.256.391-.639-1.386-2.718-6.539-1.437-3.023-.7c.35,1.077.588,1.809.912,2.8l-2.295-.29c.107-.711.184-1.216.309-2.054l-2.5.53.817,1.431-5.158,7.276c-.313-.256-1.427-1.2-1.427-1.2l-4.438-1.12-3.4,2.887s-2.8,2.828-4.266,4.328l-1.451-1.239c-.644,1.473-1.745,3.981-1.745,3.981l-5.512,5.479-12.845,5.1-2.512,1.626-2.042,8.168-.362.762-.92,2.993,1.271,10.189-2.281,7.623.236,3.431,7.58-.369,3.683-1.539,9.93-2.474.681-.244,12.817-3.406,7.988,5.827s.736,1.879,1.151,2.9l4.613-3.405-3.312,5.756,4.931-.423c-.208,1.6-.444,3.745-.444,3.745l.795,2.389,14.041,1.419,8.69-4.8,9.909-10.9,7.457-12.495s.869-5.227,1.207-7.523C1575.453,365.17,1574.457,364.1,1574.457,364.1Z" transform="translate(-924.637 -93.049)" fill="#003db4"/>
          <path id="Контур_79" data-name="Контур 79" d="M1554.985,297.568c-.539,1.572-.961,2.8-1.383,4.037l-.9-.045c-.464-1.3-1.436-3.869-1.436-3.869l-2.542-2.942-6.237-1.182s-.295.328-.565.637l1.286.793-2.017,2.871,6.009,1.488c-.048.269-.1.537-.143.806l-1.974.9,3.044,4.786,1.121-1.944c2.671,1.161,7.4,3.222,7.4,3.222l1.946,6.579s-.647,1.471-1.255,2.889l5.387-1.131c.993.772,3.181,2.432,3.181,2.432l5.669-1.378,5.764-.138,1.381,2.071,8.694,3.451s.555-.494.85-.773l-8.078-8.659,2.822-1.787c-1.337-.968-3.242-2.364-3.242-2.364l-2.216-2.021-2.791-2.726S1561.815,296.747,1554.985,297.568Z" transform="translate(-934.518 -87.231)" fill="#003db4"/>
          <path id="Контур_80" data-name="Контур 80" d="M1500.107,271.653l-8.849,9-.681.194-3.942,2.936-1.354.577-3.235,3.7,2.418,7.83,6.01,3.019,3.975.8,4.766-1.851s2.48-8.264,5.972-10.8c-.738-1.85-2.182-5.553-2.182-5.553l.94-3.086-.42-2.687-1.468-5.279Z" transform="translate(-924.296 -83.234)" fill="#003db4"/>
          <path id="Контур_81" data-name="Контур 81" d="M1309.752,333.661l-8.807,8.567-2.824,4.234.026,4.038-1.063,4.662L1296.7,365.3l1.578,1.78,7.43-2.939,4.656-12.973,3.455-10.552s-.518-6.317-2.905-9.3C1310.4,332.363,1309.752,333.661,1309.752,333.661Z" transform="translate(-892.265 -93.755)" fill="#003db4"/>
          <path id="Контур_82" data-name="Контур 82" d="M1533.952,171.156l-3.51,2.731-5.408,3.414L1523,180.912c1.036,1.644,2.87,4.482,2.87,4.482l1.645,1.075,1.573-1.989s.06-1.769.06-2.05l4.774-2.706c1.185-.114,3.271-.4,3.271-.4l5.918-3.112,1.5-2.332-1.567-7.121-4.818-7.7s-1.067-1.21-1.591-1.833l.446-.354,3.51,1.216,4.511-3.523c-1.106-1.094-3.076-2.942-3.076-2.942l-7.386-2.678s-1.319-.332-2.261-.562c.921,1.936,1.666,3.5,2.123,4.462-.592,1.249-1.178,2.637-1.178,2.637l1.922,3.607,2.4,8.918-2.462,2.027Z" transform="translate(-931.373 -62.141)" fill="#003db4"/>
          <path id="Контур_83" data-name="Контур 83" d="M1501.435,320.4l.9.72s2.877,2.106,4.306,3.15l.641-.475-1.613-2.931,6.066-1.127q-.052-.414-.1-.83c-3.3-.257-9.885-.62-9.885-.62s-7.047-.835-10.57-1.5V314.82c-2.306-.422-6.56-1.188-6.56-1.188l-1.116.081-4.21.089-2.9-1.2s-3.847-.3-4.737,2.539c.766.344,2.063.912,2.063.912l17.838,3.581Z" transform="translate(-922.5 -90.519)" fill="#003db4"/>
          <path id="Контур_84" data-name="Контур 84" d="M967.213,232.846l6.968.7,5.218-.818,1.8-.786-1.344-1.779L973.77,227.9l-12.986-5.513-6.074-2.965-10.178,4.445,9.41-1.143,7.242,5.616,5.989.829,4.16,1.88-4.011.563Z" transform="translate(-831.405 -74.416)" fill="#003db4"/>
          <path id="Контур_85" data-name="Контур 85" d="M1510.93,305.414s.517,1.691.787,2.534c.618-.63,1.78-1.909,1.78-1.909s.352-3.291.49-4.945c.042,3.629,2.977,4.393,5.181,6.24.92-3.688-.758-6.435-2.026-9.215l3.918-3.5-.457-.759-6.341,1.014c-.1-.435-.384-2.187-.384-2.187l2.3-.811,3.575.371,4.831-3.156-.413-1.553-1.028.155-5.631,1.252-6.246,4.33-1.155,4.875.554,4.7Z" transform="translate(-929.148 -86.188)" fill="#003db4"/>
          <path id="Контур_86" data-name="Контур 86" d="M1511.721,249.988s1.3.708,1.972,1.043v-3.9c1.706.084,3.907,2.859,3.907,2.859l1.493,1.644,1.679.833-.246.831-2.531-.253s-1.616-.753-2.879-1.369c.238,1.542.577,3.467.577,3.467l1.252,1.774s.94,1.505,1.72,2.767l1.927-4.052,3.021,1.5c.081-1.151.188-3.6.188-3.6l-2.092-3.9-1.776-1.658-3.685-2.908-2.152-3.823-.109-5.66s-2.3-1.157-3.5-1.7c-.344.866-.994,2.606-.994,2.606l-.055,2.76-.559,4.068s1.651,2,2.631,3.08C1509.563,247.583,1511.721,249.988,1511.721,249.988Z" transform="translate(-928.933 -76.917)" fill="#003db4"/>
          <path id="Контур_87" data-name="Контур 87" d="M1613.672,425.549l-9.329,5.49-8.093,4.4s-1.176,1.355-2.114,2.489c1.742.4,4.035.88,4.035.88l9.017-4.262,3.3-1.8,10.09-7.256s.476-1.155.607-1.5C1617.933,421.371,1613.672,425.549,1613.672,425.549Z" transform="translate(-943.667 -109.621)" fill="#003db4"/>
          <path id="Контур_88" data-name="Контур 88" d="M1640.416,411.384l-3.652-3.462s-.5-3.642-1.947-4.922a3.739,3.739,0,0,0-1.292,3.271l-3.925,8.99s-.783.76-1.307,1.285c3.044,2.131-.489,3.533-.453,5.622,2.74-.3,6.658-3.375,6.658-3.375l4.439-3.708s2.2-2.032,3.3-3.051l-.493-.662C1641.3,411.374,1640.416,411.384,1640.416,411.384Z" transform="translate(-949.492 -106.143)" fill="#003db4"/>
          <path id="Контур_89" data-name="Контур 89" d="M1151.552,88.987c-1.7-2.133-5.458-2.687-5.458-2.687l-7.14.854-1.232-.453s-3.967-.821-5.783,1.906h2.841v3.65C1141.082,94.543,1146.233,92.247,1151.552,88.987Z" transform="translate(-863.792 -51.411)" fill="#003db4"/>
          <path id="Контур_90" data-name="Контур 90" d="M1620.163,316.47l-7.553-1.587c-.63-1.012-1.634-2.593-1.634-2.593l-1.07-1s-7.647-6.306-11.472-9.456l-.635.625c1.17,1.3,1.2,4.443,1.2,4.443l-3.07,2.1s-2.775.525-4.227.767c2.208,3.666,5.625,2.908,10.308-2.568l7.954,6.5c.047.873.1,1.939.2,3.73,1.915-2.329,4.023,2.82,6-1.282a16.921,16.921,0,0,1,1.133,3.176l.681,1.846s1.441-.3,2.206-.514c.716,2.635.716,2.635,2.63,2.927Q1621.428,319.859,1620.163,316.47Z" transform="translate(-943.247 -88.66)" fill="#003db4"/>
          <path id="Контур_91" data-name="Контур 91" d="M965.4,61.42l-.357.631L966.9,63.16l14.683.007,3.266-2.05-.4-.613-2.67-.61-2.759-.041-5.292-.24-9.253-1.647-5.994,1.8.169,1Z" transform="translate(-833.816 -46.515)" fill="#003db4"/>
          <path id="Контур_92" data-name="Контур 92" d="M1165.167,122.471s.576-2,.882-2.992c-1.314-.381-3.937-1.024-3.937-1.024l-2.626,1.8s-3.068,1.921-1.959,4.143l-2.051,1.557c.618.947,1.185,1.817,1.913,2.936C1160.042,126.612,1165.167,122.471,1165.167,122.471Z" transform="translate(-867.86 -56.968)" fill="#003db4"/>
          <path id="Контур_93" data-name="Контур 93" d="M1526.7,262.116l.061-.1-.026.026.026-.026-.077-.039c0,.043-.005.086-.011.129A.222.222,0,0,1,1526.7,262.116Z" transform="translate(-932.009 -81.772)" fill="#003db4"/>
          <path id="Контур_94" data-name="Контур 94" d="M1517.8,269.954c.544-.2,1.52-.569,1.52-.569l3.111,1.059s2.333,2.523,3.49,3.682c1.008-1.881,2.381-4.438,2.381-4.438s-1.05-7.148-3.13-7.543l-2.1,3.342C1519.386,264.745,1517.706,266.168,1517.8,269.954Z" transform="translate(-930.474 -81.8)" fill="#003db4"/>
          <path id="Контур_95" data-name="Контур 95" d="M1536.21,301.5s2.342.27,3.58.4c.055-.222.152-.677.152-.677l-.363-.9-6-.519-2.378-.27s-.926-3.3.591-4.588l1.922,2.07c.15-2.244.267-3.989.407-6.072,2.471-2.249,2.471-2.249.93-3.75.2-.865.368-1.573.532-2.281l-.844-.438c-.848,1.514-2.407,4.54-2.407,4.54l-5.442,6.782s-.937.364-1.865.736l4.558,2.6c-.105,1.2-.213,2.587-.213,2.587l3.582.445Z" transform="translate(-931.724 -85.661)" fill="#003db4"/>
          <path id="Контур_96" data-name="Контур 96" d="M1549.522,425.15l-.825,3.409,1.96,2.708s7.7-4.048,7.343-8.178c-1.865,0-5.345-.1-5.345-.1Z" transform="translate(-935.815 -109.597)" fill="#003db4"/>
          <path id="Контур_97" data-name="Контур 97" d="M1025.263,55.408l7.077-1.364L1034.409,53l-12.073-1.361-1.833,1.614,1.93,2.026Z" transform="translate(-844.534 -45.422)" fill="#003db4"/>
          <path id="Контур_98" data-name="Контур 98" d="M1399.942,262.584c0,2.86.1,8.227.1,8.227l2,2.4,3.475-3.221S1402.824,263.483,1399.942,262.584Z" transform="translate(-910.107 -81.876)" fill="#003db4"/>
          <path id="Контур_99" data-name="Контур 99" d="M1004.293,54.662l6.5,1.706-3.525.308-.106.851,4.252,1.71-.449,1.872,13.351,1.081,5.655-3.6,4.925-1.439,5.507-2.406,26.414-6.79,2.2-.974-.174-.94-40.7,2.642,4.443,1.849-2.651,3.119-2.834.578-9.508,3.842-2.4-.935-4.436-.791-.018-.011,4.231-1.168-.081-.9-11.95-2.626-1.12,1.028.484,1.24Z" transform="translate(-841.305 -44.454)" fill="#003db4"/>
          <path id="Контур_100" data-name="Контур 100" d="M1652.827,264.784l-.43.327v3.936c-1.086-.256-2.627-.612-2.627-.612s-1.644-.215-2.418-.311c-1.5-4.767-1.562-4.836-4.149-4.391.913.829,2.344,2.237,2.344,2.237s2.038,3.5,4.246,3.713c.111,1.381.209,2.61.307,3.838l.623-.056v-3.706c3.711-.688,4.088,2.965,6,4.608-.371-1.918-1.491-5.5-1.491-5.5S1653.645,266.138,1652.827,264.784Z" transform="translate(-952.147 -82.044)" fill="#003db4"/>
          <path id="Контур_101" data-name="Контур 101" d="M1004.03,59.788l-.216-.8-7.221.753-4.659.927,10.5,1.317Z" transform="translate(-839.597 -46.691)" fill="#003db4"/>
          <path id="Контур_102" data-name="Контур 102" d="M1004.647,62.592l-.026.011-.055.075Z" transform="translate(-841.78 -47.314)" fill="#003db4"/>
          <path id="Контур_103" data-name="Контур 103" d="M1508.463,221.969c.561-2.78,1.463-7.618,1.463-7.618l-1.3-1.461-2.039.657S1505.322,219.742,1508.463,221.969Z" transform="translate(-928.494 -73.288)" fill="#003db4"/>
          <path id="Контур_104" data-name="Контур 104" d="M1530.432,320.587c.014-.221.027-.442.042-.663-1.136-.069-3.381-.128-3.381-.128l-5.067,2.748s-.519,1.5-.757,2.289c.628.156,1.854.41,1.854.41S1528.006,322.158,1530.432,320.587Z" transform="translate(-931.075 -91.763)" fill="#003db4"/>
          <path id="Контур_105" data-name="Контур 105" d="M1669.757,346.833l-2,.974-1.495,1.285.766,1.608,2.6.354s.443-1.4.7-2.357l3.764-3.5A6.431,6.431,0,0,0,1669.757,346.833Z" transform="translate(-956.133 -96.149)" fill="#003db4"/>
          <path id="Контур_106" data-name="Контур 106" d="M1666.29,294.686c-1.033-2.783-4.878-4.189-3.33-8.627-1.145.609-2.061,1.137-2.061,1.137l.443,3.05s2.789,3.387,4.215,5.057Z" transform="translate(-955.205 -85.933)" fill="#003db4"/>
          <path id="Контур_107" data-name="Контур 107" d="M964.468,213.13l-.109,3.668,4.927-4.071-1.212-1.1Z" transform="translate(-834.831 -73.07)" fill="#003db4"/>
          <path id="Контур_108" data-name="Контур 108" d="M993.364,236.3l2.763-1.107-2.392-1.178-1.936.844Z" transform="translate(-839.573 -76.939)" fill="#003db4"/>
          <path id="Контур_109" data-name="Контур 109" d="M1670.445,299.042l.364-.012s.628-.744.937-1.12c-.586-.047-1.755-.109-1.755-.109s-.956.449-1.429.69C1669.489,300.368,1670.445,299.042,1670.445,299.042Z" transform="translate(-956.529 -87.962)" fill="#003db4"/>
        </g>
      </g>
      <path id="Контур_110" data-name="Контур 110" d="M1465.851,313.268a.5.5,0,0,0,.05-.06c.018-.046.041-.1.045-.11l.011-.026.006-.037h-.264a489.2,489.2,0,0,0,16.2-124.213,497.954,497.954,0,0,0-16.808-127.229h.031l-.248-.827h0q-6.56-24.758-15.673-49.626l.114,1.194v-.827l-.419-1.194q-5.409-14.693-11.7-29.425l-.76.326q6.234,14.569,11.58,29.1h-58.639q-4.324-14.678-9.352-29.4l-.783.268q4.993,14.583,9.274,29.128H1329.86q-3.24-14.663-7.007-29.364l-.8.205h0q3.748,14.6,6.962,29.159h-58.678q-2.158-14.647-4.658-29.332l-.816.14h0q2.5,14.616,4.638,29.192h-58.675q-1.078-14.63-2.327-29.3l-.824.071q1.252,14.632,2.321,29.226h-58.679V-18.949h-.827V10.313h-58.679q1.076-14.6,2.321-29.226l-.824-.071h0q-1.256,14.668-2.327,29.3h-58.675q2.149-14.578,4.638-29.192l-.815-.14q-2.514,14.686-4.658,29.332H972.793q3.22-14.56,6.962-29.159l-.8-.205h0q-3.774,14.7-7.007,29.364H913.289q4.291-14.544,9.274-29.128l-.782-.268h0q-5.039,14.717-9.353,29.4H853.788q5.356-14.531,11.58-29.1l-.76-.326q-6.3,14.732-11.7,29.425h0a.949.949,0,0,1-.067.232c-.091.184-.112.393-.2.577a1.151,1.151,0,0,1-.069.126q-9.086,24.814-15.635,49.519h-.013a1.122,1.122,0,0,1-.228.827h.025q-6.548,24.869-10.543,49.627h-.432v.827h.3a486.886,486.886,0,0,0-6.135,76.775,481.7,481.7,0,0,0,5.832,74.557v.029h0a504.451,504.451,0,0,0,10.365,49.627h-.017a8.954,8.954,0,0,1,.539,1.385.909.909,0,0,1-.01.523q6.459,24.327,15.387,48.546h-.312c.135.272.263.548.381.827h.241q5.66,15.267,12.292,30.492l.758-.331Q858.8,379.418,853.2,364.316h58.755q4.525,15.253,9.825,30.463l.782-.273q-5.26-15.074-9.743-30.19h58.774q3.39,15.237,7.362,30.43l.8-.209q-3.948-15.089-7.314-30.221h58.8q2.258,15.218,4.889,30.4l.815-.142q-2.635-15.105-4.868-30.255h58.789q1.128,15.2,2.442,30.362l.824-.071q-1.319-15.124-2.437-30.291h58.794v30.326h.827V364.316h58.795q-1.127,15.165-2.437,30.29l.824.072q1.323-15.158,2.442-30.362h58.79q-2.249,15.147-4.868,30.255l.815.142q2.648-15.177,4.889-30.4h58.8q-3.37,15.131-7.314,30.221l.8.209q3.976-15.193,7.362-30.43h58.773q-4.489,15.115-9.743,30.19l.782.273q5.306-15.209,9.824-30.463h58.756q-5.607,15.1-12.167,30.161l.759.331q6.638-15.224,12.292-30.492h.036c.028-.124.055-.249.089-.371.021-.075.045-.151.072-.224a3.1,3.1,0,0,1,.158-.356q9.106-24.7,15.634-49.5h.135A.983.983,0,0,1,1465.851,313.268ZM1032.188,11.14h58.734q-1.824,24.869-3.14,49.626H1025.9Q1028.531,36.009,1032.188,11.14Zm52.3,200.987h-65.171q-.227-11.64-.238-23.3,0-13.145.292-26.322h65.143q-.145,13.177-.146,26.322Q1084.373,200.489,1084.492,212.127Zm-65.922-50.453H953.432q.841-24.757,3.219-49.627h64.061Q1019.127,136.917,1018.57,161.674Zm-.022.827q-.289,13.177-.292,26.322,0,11.666.238,23.3H953.313q-.34-11.64-.347-23.3,0-13.145.437-26.322Zm-.04,50.453q.5,24.87,2.042,49.627H956.4q-2.3-24.757-3.058-49.627Zm.827,0H1084.5q.251,24.87,1.021,49.627H1021.38Q1019.845,237.824,1019.336,212.954Zm.062-51.28q.561-24.757,2.144-49.627h64.06q-.793,24.87-1.071,49.627Zm1.366-50.454H956.73q2.4-24.757,6.334-49.627h61.924Q1022.368,86.462,1020.763,111.22Zm-64.865,0H891.868q3.2-24.757,8.447-49.627h61.911Q958.3,86.462,955.9,111.22Zm-.078.827q-2.38,24.87-3.217,49.627H887.47q1.123-24.757,4.294-49.627ZM952.574,162.5q-.434,13.177-.436,26.322,0,11.666.347,23.3H887.312q-.454-11.64-.463-23.3,0-13.145.581-26.322Zm-.065,50.453q.753,24.87,3.056,49.627H891.422q-3.07-24.757-4.079-49.627Zm3.133,50.454q2.335,24.869,6.221,49.627H899.832q-5.187-24.758-8.306-49.627Zm.831,0H1020.6q1.557,24.87,4.153,49.627H962.7Q958.812,288.278,956.473,263.408Zm64.956,0h64.116q.779,24.87,2.077,49.627h-62.036Q1022.993,288.277,1021.429,263.408Zm63.9-50.454h65.164v49.627h-64.142Q1085.581,237.824,1085.326,212.954Zm-.006-.827q-.114-11.64-.119-23.3,0-13.145.146-26.322h65.144v49.626Zm.038-50.453q.279-24.757,1.071-49.627h64.061v49.627Zm.269-50.454h-64.034q1.6-24.757,4.228-49.627h61.92Q1086.43,86.462,1085.626,111.22ZM972.611,11.14h58.741q-3.647,24.869-6.279,49.626H963.194Q967.135,36.009,972.611,11.14Zm-59.565,0h58.718q-5.47,24.869-9.407,49.626H900.488Q905.744,36.009,913.046,11.14Zm-59.562,0h58.7q-7.292,24.868-12.541,49.626H837.784Q844.355,36.01,853.484,11.14ZM837.568,61.593h61.9q-5.239,24.869-8.437,49.627H827.007Q831,86.464,837.568,61.593ZM820.732,188.822a486.151,486.151,0,0,1,6.145-76.775h64.054q-3.173,24.87-4.289,49.627h-60.9v.827H886.6q-.578,13.177-.581,26.322,0,11.665.462,23.3H825.737v.827h60.778q1.005,24.87,4.073,49.627H826.45A480.739,480.739,0,0,1,820.732,188.822Zm5.847,74.586h64.112q3.114,24.87,8.294,49.627H836.964A503.4,503.4,0,0,1,826.58,263.408Zm26.31,100.081q-9.151-24.758-15.707-49.627h61.978q5.24,24.87,12.546,49.627Zm59.681,0q-7.32-24.757-12.563-49.627H962q3.929,24.87,9.411,49.627Zm59.683,0q-5.488-24.757-9.421-49.627h62.007q2.619,24.87,6.279,49.627Zm59.7,0q-3.658-24.757-6.283-49.627h61.994q1.31,24.87,3.14,49.627Zm118.535,0h-58.855q-1.829-24.757-3.142-49.627h62Zm-62.039-50.454q-1.3-24.758-2.078-49.627h64.117v49.627ZM1150.49,111.22h-64.036q.8-24.757,2.114-49.627h61.922Zm0-50.454h-61.88q1.313-24.757,3.142-49.626h58.738ZM1448.323,11.14q9.128,24.87,15.7,49.626h-61.859q-5.25-24.758-12.541-49.626ZM1217.288,162.5h65.143q.289,13.177.292,26.322,0,11.666-.238,23.3h-65.17q.113-11.64.119-23.3Q1217.434,175.678,1217.288,162.5Zm66.01,50.453h65.171q-.754,24.87-3.059,49.627h-64.156Q1282.789,237.824,1283.3,212.954Zm.014-.827q.226-11.64.238-23.3,0-13.145-.292-26.322H1348.4q.434,13.177.436,26.322,0,11.666-.346,23.3Zm-.076-50.453q-.56-24.757-2.143-49.627h64.062q2.381,24.87,3.219,49.627Zm-2.193-50.454q-1.6-24.757-4.225-49.627h61.925q3.933,24.87,6.334,49.627Zm-.83,0H1216.18q-.8-24.757-2.113-49.627h61.92Q1278.608,86.462,1280.214,111.22Zm.051.827q1.588,24.87,2.144,49.627h-65.132q-.28-24.757-1.071-49.627Zm-62.957,100.907h65.163q-.5,24.87-2.044,49.627h-64.141Q1217.053,237.824,1217.308,212.954Zm63.069,50.454q-1.559,24.87-4.156,49.627h-62.036q1.3-24.758,2.077-49.627Zm.829,0h64.127q-2.339,24.869-6.229,49.627h-62.052Q1279.644,288.277,1281.206,263.408Zm64.958,0h64.116q-3.118,24.869-8.306,49.627h-62.031Q1343.828,288.278,1346.164,263.408Zm.078-.827q2.3-24.757,3.055-49.627h65.166q-1.005,24.87-4.079,49.627Zm3.079-50.454q.34-11.64.347-23.3,0-13.145-.435-26.322h65.143q.579,13.177.582,26.321,0,11.666-.464,23.305Zm-.118-50.453q-.841-24.757-3.217-49.627h64.056q3.178,24.87,4.294,49.627Zm-3.295-50.454q-2.395-24.757-6.328-49.627h61.911q5.246,24.87,8.446,49.627Zm42.853-100.08q7.3,24.869,12.557,49.626H1339.45q-3.937-24.757-9.407-49.626Zm-59.565,0q5.474,24.869,9.417,49.626h-61.879q-2.626-24.757-6.278-49.626Zm-59.577,0q3.649,24.869,6.283,49.626h-61.877q-1.313-24.757-3.14-49.626Zm-118.3,0h58.739q1.824,24.869,3.141,49.626h-61.88Zm0,50.453h61.922q1.31,24.869,2.113,49.627h-64.036Zm0,50.454h64.06q.794,24.87,1.072,49.627h-65.132Zm0,50.454h65.144q.144,13.177.146,26.322,0,11.666-.119,23.3h-65.171Zm0,50.453h65.164q-.252,24.87-1.022,49.627h-64.141Zm0,50.454h64.117q-.778,24.87-2.078,49.627h-62.039Zm58.855,100.081h-58.855V313.862h62Q1212,338.732,1210.172,363.489Zm59.68,0H1211q1.828-24.757,3.14-49.627h61.994Q1273.514,338.732,1269.851,363.489Zm59.7,0h-58.865q3.657-24.757,6.279-49.627h62.006Q1335.039,338.732,1329.553,363.489Zm59.683,0H1330.4q5.483-24.757,9.411-49.627H1401.8Q1396.553,338.731,1389.235,363.489Zm59.681,0H1390.1q7.309-24.757,12.545-49.627h61.979Q1458.065,338.731,1448.917,363.489Zm-46.1-50.454q5.18-24.757,8.294-49.627l64.693.033v-.827l-64.589-.033q3.066-24.757,4.073-49.627l65.453-.007v-.827l-65.421.007q.454-11.64.462-23.305,0-13.145-.58-26.321l65.539-.111v-.827l-65.579.111q-1.12-24.757-4.288-49.627h64.553v-.827h-64.657q-3.191-24.757-8.436-49.627h61.9a497.207,497.207,0,0,1,16.836,127.229,488.414,488.414,0,0,1-16.232,124.213Z" transform="translate(-797.598 19.112)" fill="#fff" opacity="0.11"/>
      <g id="Сгруппировать_22" data-name="Сгруппировать 22" transform="translate(22.307 50.772)">
        <g id="Сгруппировать_21" data-name="Сгруппировать 21" transform="translate(0 0)">
          <path id="Контур_111" data-name="Контур 111" d="M1016.7,60.826l.106-.016-.025-.072Z" transform="translate(-853.914 -45.459)" fill="#5b91f1"/>
          <path id="Контур_112" data-name="Контур 112" d="M1037.228,261.451,1011,251.037l-2.978-7.279L987.436,228.9l-2.057-4.572-.3-1.463-24.262-.716-.222-.32-1.022-2.946L954,221.6l-6.153,7.442-7.741-2.133-4.647-.5-2.314-4.9,1.825-8.372-.14-1.889-5.684-1.955-6.124.639,3.394-7.436,2.594-7.335-6.506-.371-2.6,2.159-6.879,5.3-5.766-2.1-1.888-4.846L908.6,179.24l.28-.4,12.624-4.75,6.037.808.145-2.434,3.747-.386L940.6,176.7l3.084,8.843,3.321-5.6-.838-4.979,1.917-7.162L962.133,156.2l6.225-9.413,5.121-3.444,6.327-5.11s8.138-4.252,12.208-6.37c.1.208.194.422.285.635a14.484,14.484,0,0,0-2.692,4.388c.716-.091,2.1-.319,2.1-.319l5.281-2.611s3.108-1.143,4.657-1.732a11.055,11.055,0,0,0-3.209-1.8l-1.505-5.507,1.6-1.595c-1.8-2.788-4.3-1.712-7.275-1.3,1.534-.849,3.354-1.783,3.354-1.783l9.391-.112,6.6-1.645s2.406-1.184,3.612-1.763c.093.183.184.371.276.558-2.692,3.018-5.379,6.035-8.108,9.1.406.3.793.579.793.579l10.762,1.544,2.183-1.9s.107-3.556.107-5.679h-4.448c.721-1.585,1.9-4.16,1.9-4.16l.025-7.193-2.836-2.616S1011.63,97.547,1011,93.94c-1.587,1.113-6.709,4.252-6.709,4.252l-2.619-.569.087-2.428-.915-3.134-7.038-3.018L986.836,93.2l-3.05,4.1-2.4,7.2-4.569,2.266-4.236,7.031s-2.3,1.391-3.495,2.052c-.2-1.4-.518-4.206-.518-4.206l1.331-2.662s.582-1.148.94-1.864c-1.008-.3-2.658-.8-2.658-.8s-10.374-5.319-13.409-4.724c.33-1.245.6-2.281.872-3.307-.6-.356-1.09-.65-2.319-1.387,3.272-2.337,8.94-6.273,8.94-6.273l11.909-5.268,3.587-1.808.223.274-2.164,2.621,3.969.706,7.581-.9-3.79-5.222-.132-.747,7.189-1.331,4.124-6.192,11.85,4.557-3.805,2.946-6.2,1.636-3.626,3.256,6.22.244,2.653,1.524,8.631,3.927-.591-1.941,5.044-1.768-1.6-6.461,3.215,1.7,4.212.635,1.743-1.362-.605-4.76L1018,75.038l-1.39-5.867-6.656-2.672-5.625-2.636.5,2.484-.658.264-1.162-2.413-5.257-.045-9.633,1.493-.407.58,1.133,6.482-6.651,5.45.571-4.08-2.851-.162.063-5.78,1.346-.859L988.08,65.6l1.467-2.057-2.673-.5.988-3.139-4.425,2.667-7.072,5.8-.184-.325,2.246-4.439-10.534,2.52L973.5,69.36l-2.067,2.534,1.473,2.423-4.681,2.342-.383-.792.726-.482,2.067-1.519-2.741-1.509-5.077,1.808,2.013,1.519-9.648.107,7.717-2.6.208-2.382-1.065-.742.561-5.125-5.184.878-6.782-.5-3.21-2.555-7.13-.538L928.61,66.652l2.938,2.956,5.955-1.457.615.595-2.362,5.43-3.432-.67-7.731-1.179-5.175-1.362-16.382,2.53-9.958-2.2-8.351-.878-23.12.848-10.175,2.982s-1.984.783-3.123,1.245l2.28,4.252-10.582,1-2.958,4.226h6.39l-1.8,1.224-11.211,3.754-4.057,3.439,1.414,3.535-.513,1.884H832.7l.1.381-12.9,6.3.087.726,4.314-.412,22.945-9.788-.146,1.833,10.006-3.794,11,1.611,3.238,1.8,3.074,13L874.195,115l-.184,3.576h-2.489l1.831,3.683.576,4.186-11.081,17.393-1.462,5.186.692,6.9,5.94,10.962,1.757,10.378.14,3.846,3.021,5.034.334.625,4.319,4.313.45-2.824-5.485-15.022-.494-4.47,3.287,2.972.252,2.961,7.121,12.918,2.865,9.733,1.293,3.688,16.338,8.946,3.006.03,19.426,9.667,2.784,2.311,1.433,4.684,7.619,5.009,4.822-2.87,2.174,2,1.205,3.261-1.433,9.52-4.735,5.547-.232.422-1.51,18.932,28.111,38.581.857,22.275,3.916,31.626L974.1,366.1l7.445,20.8.208.457,8.694,3.439,2.987,5.028h9.681l-1.244-1.1-8.829-6.965-.688-7.061,1.753-3.825-4.352-5.455,2.057-5.761,1.8-2.052-3.674-2.759,4.826-1.224.174-4.917,8.239-2.4-1.806-8.752,1.259.006,7.857-4.507,5.263-9.341,3.644-12.954,8.878-3.621,5.305-5.024,5.325-24.352,3.655-4.983,2.682-9.215-3.1-5.238Zm-91.67-123.164s-1.5,1.819-2.532,3.063c.155-5.12,3.587-9.382,6.971-9.982C948.666,133.461,945.558,138.287,945.558,138.287Zm15.432-5.227c-3.088-.914-3.853,1.808-4.807,2.937-.557-.61-1.051-1.143-1.539-1.682-.3-.61,2.111-1.971-.794-3.312C957,129.788,959.819,130.525,960.99,133.06Zm-10.209-8.895c1.82-.548,3.176,1.341,2.992,4-3.863-.213-7.542-.421-11.88-.665C945.147,126.253,947.916,125.028,950.781,124.165Z" transform="translate(-819.905 -45.315)" fill="#5b91f1"/>
          <path id="Контур_113" data-name="Контур 113" d="M1137.724,64.523l-2.581-1.719,10.534-7.245.624-4.132,14.064-5.141-.028-.919-19.78-3.1h-7.261l-2.043.437-9.813.477-14.9,1.535-18.62,2.133-12.27,3.744-6.664.866,5.6,5.027,4.592-.018,4.244.762,2.492,4.985-.939,3.381,4.594,1.328-.2.707-3.388-.479,1.755,3.891-2.71.856-3.472,4.074.971,9.9,1.775,3.262,1.552.784,3.871,1.224,4.167-.125,7.34-8.5,7.245-3.614,8.3-2.886,3.737-2.148,16.833-5.183Z" transform="translate(-862.95 -42.267)" fill="#5b91f1"/>
          <path id="Контур_114" data-name="Контур 114" d="M1407.641,225.634l2.173,5.743.962,1.1s1.534,3.731,3.017,7.362l.008.008c1.339,1.764,3.536,4.653,5.113,6.663v.009c.7.434,1.252.784,1.252.784l1.73-.035.273-1.738-1.236-3.8-5.939-9.655-4.353-8.018s.732-5.59,1.235-8.666c.553.894,1.287,1.994,1.287,1.994l5.888,5.113s1.831,1.516,3.152,2.573c.145.809.392,2.2.716,4.038l3.161-2.573,4.116-3.63,2.786-6.049-4.124-9.237-5.035-5.785-.043-4.09,4.073-3.511s2.326,1.653,3.527,2.582c-.349.111-.7.23-1.039.341-.469,1.3-1.236,3.886-1.236,3.886l2.42,1.712s2.378-2.514,2.6-4.592c-.648-.2-1.235-.392-1.806-.58.255-1.09.494-2.113.6-2.53,2.275-.988,6.015-2.471,6.015-2.471l6.842-3.042,6.646-11.043-.733-10.822s-3.937-8.034-9.245-9.714c2.284-2.011,4.158-3.655,6.2-5.445-2.591-.963-5.044-2.523-7.32-.63-1.807-1.2-3.34-2.224-4.636-3.094.9-1.193,3.068-4.005,3.068-4.005l1.585-.639.691,1.3,3.408,1.764,5.352,1,2.768,3.051s1.789.614,2.693.929c-.205.136-.4.264-.6.4.988,2.591,1.968,5.181,3.025,7.934,1.2-.426,3.153-1.125,3.153-1.125l1.661-5.044-1.661-2.471s-3.75-3.707-5.624-5.556a15.61,15.61,0,0,0,2.292-6.195l2.726-1.866,5.155-3.11,2.036-8.853L1466.452,118s-1.091-1.773-1.619-2.676c.247-.2.486-.392.733-.588.749.964,2.249,2.914,2.249,2.914l7.038,10.592s1.389,1.431,1.917,1.96c.826-.844,1.38-1.406,1.908-1.934-1.585-1.773-3.247-3.647-5.147-5.794a1.517,1.517,0,0,0,1.2-2.258l-6.876-6.978-5.564-5.309c-.153.162-.3.323-.452.494.145.7.289,1.389.452,2.131-1.679-.742-4.738-2.037-4.738-2.037l-2.939-.094h-2.744l-3.937-2.53c.783-2.266,6.015-9.62,6.015-9.62l13.071.571s4.823.5,7.558-.767c-1.874-1.483-3.6-2.829-1.328-5.786,1.4.529,4.8,1.824,4.8,1.824s5.769-1.159,6.169-.63c-.392,2.172-.963,5.266-.963,5.266l-1.542,5.052s10.267,11.29,14.34,15.1v4.141s3.732-5.828,1-8.955c.724-.571,1.184-.929,1.7-1.347-.553-.775-.349-4.763-.349-4.763l-5.93-7.064s-2.8-1.823-3-4.311c1.278.2,4.985.2,4.985.2l7.379-2.718,5.01-2.957s2.01-.256,3.024-.409q.09-.588.179-1.176c-2.462-1.142-4.925-2.275-7.431-3.434.9-1.994,4.091-2.037,4.091-2.037l4.141,1.347s4.465,1,6.919,1.534a9.671,9.671,0,0,0-6.475-6.971l-5.683-1.108S1427.29,65.739,1422.765,65.5c-3.348-.18-7.3-2.761-10.148,1.482-2.625.051-9.476.5-10.277.682-.042.315-2.871-1.022-4.295-1.917-1.295-.809-9.543-2.8-12.321-3.067-.315-.026-.81-.035-.921.145-1.167,1.866-23.757.835-24.063.724,1.67-1.295,3.212-2.479,4.755-3.664-.06-.281-5.309-2.684-5.309-2.684l-14.06-2.19-20.714,5.1s-1.175,1.108-2.207,2.147c-1.857.239-4.414.571-7.234.937.486,1.159.732,1.747,1.193,2.863-3-.247-5.65-.46-8.572-.69-.307.614-.869,1.747-1.448,2.931-.964-1.346-2.727-3.6-2.727-3.6l-4.516.17-2.412,3.639s1,2.889,1.653,4.524c-.878-.34-30.743,3.843-30.743,3.843a14.1,14.1,0,0,1-2.906-.238c.452-.392.9-.775,1.559-1.338-2.1-1.832-4.124-1.491-6.238-.921.358,1.491.691,2.821.9,3.715-2.42,1.338-10.507,1.671-11.666,6.119-.971-1.534-1.636-2.6-2.3-3.664,2.829-.179,7.55-.579,7.55-.579s1.781-1.423,2.659-2.181c-.759-.792-2.284-2.3-2.284-2.3L1241.3,71.422l-3.928-2.071L1219,70.536l-.392.265-10.566,9.858-7.728,5.666-4.986,10.327,5.292,2.2,4.244-2.309c.929,1.5,2.556,4.2,2.556,4.2l1.773,4.346,1.909,1.167,5.223-4.346,2.949-4.993.161-3.6.3-5.871,2.556-1.406,2.232-1.815s2.42-3.246,5.573-1.942c-1.713,1.371-4.9,3.885-4.9,3.885l-1.236,4.363,7.379,4.124s4.551-.81,6.834-1.193c.068.409.136.826.2,1.244-.955.2-6.714.545-6.714.545l-1.645,3.128s.367,1.491.664,2.778c-3.859-2.3-8.733,6.211-8.733,6.211l-7.149,1.057L1208.864,107s-1.483-1.968-2.642-3.621c-.187,1.747-.332,3.153-.495,4.687-1.669-.733-1.5-3.894-1.5-3.894s.647-2.718.945-4.09c-.264-.187-.536-.375-.8-.562-1.218.853-3.63,2.574-3.63,2.574a48.034,48.034,0,0,0,.3,7.132c-4.184.553-10.284,5.427-10.284,5.427s-2.8,3.153-4.116,1.364c0-1.883-.076-4.09-.076-4.09s-4.389-5.769-6.8-8.853c2.258-.835,2.275-1.96,1.117-3.34h-2.233c.341-.6.623-1.082.9-1.576-3.638-2.113-5.215.716-7.055,2.837.23.954.733,2.829.733,2.829l2.122,3.315s2.1,1.517,3.161,2.249c-.111.281-.214.554-.315.835-1.083.443-2.173.9-2.6,1.074-.7,1.585-1.133,2.582-1.611,3.681.537.247,1.151.537,1.73.809-1.125,1.057-2.181,2.062-3.247,3.068.128.238.247.486.375.724,4.482-.894,8.956-2.172,13.94-1.746-2.173,2.607-4.4,2.863-6.953,1.687-.136,1.117-.23,1.84-.307,2.472l-6.451.341c-.085.3-.179.6-.273.894.8.656,2.419,1.927,2.419,1.927l4.593,8.955-2.395,1.951-9.875-.682-3.98,4.115-1.439,7.618a48.219,48.219,0,0,0,.929,6.041c2.121.119,4.8-.434,6.407,3.051l9.075-1.628,7.669-13.719,12.781-3.289s.869.691,2.233,1.755a3.544,3.544,0,0,0-.171,1.389l.051,1.27-.672,4.883.937,1.482,1.644-.749.733-2.309s-.2-2.1-.425-4.32c5.1,3.971,12.925,9.978,13.352,9.705.639-.4,2.148-4.7,2.148-4.7l-13.012-11.52-.426-3.732L1220.716,140l9.8,16.19,3.118-4.3-3.544-7.84h11.077v-5.538s8.1-12.142,8.1-13.634,14.059,0,14.059,0v7.881l11.29,7.669-6.6,4.474-8.734-1.943-17.469,3.647,2.131,10.49h18.32l-3.408,14.946-11.93,1.193-17.468-6.4h-5.539v7.677l-9.8-8.947H1203.76s-.725-7.243-.017-8.095-21.583,0-21.583,0l-8.564,2.556s-4.15.273-7.26.281c-6.364,8.163-19.521,25.792-19.521,25.792l-.366.307-4.1,7.013,1.04,4.661s.034,9.586-2.343,13.113c.366,1.824,18.857,26.713,18.857,26.713l21.26-1.644,3.834-1.517,10.575,4.806,3.6-.2,3.886,2.957-.4,14.051,7.4,13.071,2.429,11.393-4.806,13.463.375,4.848,5.275,10.183,8.5,26.5-.23.673,4.9,6.024,9.279-1.278,16.506-12.653,3.358-8.138,5.862-5.862.41-11.708,7.958-6.433,4.942-7.609-3.28-24.2,11.435-16.352,8.265-7.558s5.147-9.543,7.234-14.554c.86-2.087.562-4.7.817-7.268-5.019,1.185-9.484,2.173-13.914,3.29a3.25,3.25,0,0,1-4.167-2.258c-1-4.286-3.689-7.072-7.277-9.032a6.02,6.02,0,0,1-2.889-4.056c-.52-1.73-14.366-29.492-14.366-29.492a15.805,15.805,0,0,0,2.505-1.466c2.3,3.741,13.148,22.283,13.148,22.283a88.9,88.9,0,0,1,5.939,9.015c1.133,2.242,1.951,7.516,1.951,7.516s2.335,3.57,5.079,2.318c4-1.832,12.16-5.147,12.16-5.147l15.815-11.554,2.4-4.764-2.718-7.762-4.183-3.962s-.734-1.772-1.168-2.863c-1.414,1.823-3.979,4.891-3.979,4.891s-3.715.656-5.793.937a6.319,6.319,0,0,0-1.636-5.445l-6.177-6.748,2.633-2.769,2.71,3.383,11.971,5.308,2.028.657,3.553,2.573,15.3.58,3.289.639,9.926,10.949s2.923-.127,4.533-.264c.128.715,8.189,24.072,8.189,24.072l3.63,7.984,3.2.784,4.253-8.231.213-1.218.366-7.447.315-1.986,17.366-16.206s3.229-.759,4.891-1.151c1.082,1.593,3.442,4.951,3.442,4.951s5.334,6.748,4.688,11.469c2.786,1.883,4.771.307,6.705-1.389C1407.367,215.307,1407.641,225.634,1407.641,225.634Zm-104.058-68.807-11.078-4.21,2.769-8.572-9.8-8.521,13.318-7.881,1.167,1.491-3.835,5.309,8.948,18.175Z" transform="translate(-875.404 -44.47)" fill="#5b91f1"/>
          <path id="Контур_115" data-name="Контур 115" d="M1480.58,300.435l-2.144-7.01-2.464-3.87-.993-1.376v.142l-5.663-5.669c-2.892-1.956-8.014-7.457-8.014-7.457s-3.022-.636-6.63-1.671c1.088,1.763,2.754,4.368,2.754,4.368l6.87,9.621.319.676L1475,302.35s3.059,2.337,5.068,1.067C1480.242,302.421,1480.58,300.435,1480.58,300.435Z" transform="translate(-929.604 -82.232)" fill="#5b91f1"/>
          <path id="Контур_116" data-name="Контур 116" d="M1586.592,362.248l-5.357-10.714-1.688-2.4-2.983-7.067-.356-2.75s-1-4.395-3.089-4.856c-.712-3.241-1.353-6.162-1.994-9.082l-.834.04c-.682,1.5-2.02,4.525-2.02,4.525l-3.709,11.462-3.088,1.069-3.861-3.037-1.058-7.256.391-.64-1.386-2.717-6.539-1.438-3.023-.7.911,2.8-2.294-.29c.107-.711.184-1.216.309-2.053l-2.5.53.817,1.43c-1.692,2.389-3.334,4.705-5.157,7.277-.313-.256-1.428-1.2-1.428-1.2l-4.438-1.121-3.4,2.887s-2.8,2.829-4.266,4.329l-1.451-1.24c-.644,1.474-1.746,3.982-1.746,3.982l-5.512,5.479L1503,354.6l-2.512,1.626-2.042,8.168-.362.762-.92,2.992,1.271,10.19-2.281,7.623.237,3.431,7.58-.369,3.683-1.539,9.93-2.473.681-.245,12.817-3.406,7.988,5.827s.736,1.879,1.15,2.9l4.614-3.4-3.312,5.756,4.931-.423c-.208,1.6-.444,3.745-.444,3.745l.795,2.388,14.041,1.419,8.689-4.8,9.909-10.9,7.457-12.5s.869-5.226,1.207-7.522C1587.588,363.314,1586.592,362.248,1586.592,362.248Z" transform="translate(-936.772 -91.193)" fill="#5b91f1"/>
          <path id="Контур_117" data-name="Контур 117" d="M1567.12,295.712l-1.382,4.038-.9-.045c-.464-1.3-1.436-3.87-1.436-3.87l-2.542-2.942-6.237-1.181s-.295.328-.565.636l1.286.794-2.017,2.871,6.009,1.488c-.048.268-.1.537-.143.806l-1.974.9,3.044,4.786,1.121-1.944c2.671,1.161,7.395,3.221,7.395,3.221l1.946,6.579s-.647,1.47-1.255,2.889l5.387-1.131c.993.771,3.182,2.431,3.182,2.431l5.669-1.378,5.764-.138,1.381,2.072,8.695,3.451s.555-.495.849-.773c-2.736-2.934-5.341-5.727-8.078-8.659l2.823-1.788c-1.337-.967-3.243-2.364-3.243-2.364l-2.216-2.02-2.791-2.726S1573.95,294.891,1567.12,295.712Z" transform="translate(-946.653 -85.376)" fill="#5b91f1"/>
          <path id="Контур_118" data-name="Контур 118" d="M1512.242,269.8l-8.849,9-.681.194-3.942,2.936-1.354.577-3.235,3.7,2.418,7.83,6.01,3.018,3.975.8L1511.35,296s2.48-8.265,5.973-10.8c-.739-1.85-2.182-5.554-2.182-5.554l.94-3.086-.42-2.686-1.468-5.279Z" transform="translate(-936.431 -81.379)" fill="#5b91f1"/>
          <path id="Контур_119" data-name="Контур 119" d="M1321.887,331.806l-8.807,8.567-2.824,4.234.026,4.038-1.063,4.661-.387,10.144,1.578,1.78,7.43-2.939,4.655-12.973,3.455-10.552s-.518-6.318-2.905-9.3C1322.537,330.508,1321.887,331.806,1321.887,331.806Z" transform="translate(-904.4 -91.9)" fill="#5b91f1"/>
          <path id="Контур_120" data-name="Контур 120" d="M1546.087,169.3l-3.51,2.732-5.408,3.413-2.036,3.611c1.036,1.643,2.87,4.482,2.87,4.482l1.645,1.075,1.572-1.989s.059-1.769.059-2.05l4.774-2.707c1.185-.113,3.271-.4,3.271-.4l5.918-3.111,1.5-2.332-1.568-7.121-4.818-7.7s-1.067-1.211-1.591-1.834l.446-.353,3.51,1.216,4.511-3.524c-1.106-1.094-3.076-2.941-3.076-2.941l-7.386-2.679s-1.319-.332-2.262-.562l2.123,4.462c-.591,1.248-1.178,2.636-1.178,2.636l1.922,3.607,2.4,8.918-2.462,2.026Z" transform="translate(-943.508 -60.285)" fill="#5b91f1"/>
          <path id="Контур_121" data-name="Контур 121" d="M1513.57,318.545l.9.72s2.877,2.107,4.306,3.15l.641-.475-1.613-2.93,6.066-1.128q-.052-.414-.1-.829c-3.3-.258-9.886-.62-9.886-.62s-7.048-.835-10.57-1.5v-1.972c-2.306-.422-6.56-1.189-6.56-1.189l-1.117.082-4.21.089-2.9-1.2s-3.847-.3-4.737,2.539c.766.344,2.063.911,2.063.911l17.838,3.582Z" transform="translate(-934.635 -88.663)" fill="#5b91f1"/>
          <path id="Контур_122" data-name="Контур 122" d="M979.348,230.991l6.968.7,5.217-.818,1.8-.786-1.344-1.779-6.088-2.266-12.987-5.513-6.074-2.965-10.178,4.445,9.41-1.143,7.242,5.615,5.989.829,4.16,1.88-4.011.563Z" transform="translate(-843.54 -72.561)" fill="#5b91f1"/>
          <path id="Контур_123" data-name="Контур 123" d="M1523.065,303.559s.517,1.691.788,2.534c.618-.63,1.78-1.909,1.78-1.909s.352-3.291.49-4.946c.042,3.629,2.977,4.393,5.181,6.24.92-3.688-.757-6.434-2.026-9.214l3.918-3.5-.457-.759-6.341,1.014c-.1-.435-.384-2.188-.384-2.188l2.3-.811,3.575.371,4.832-3.155-.413-1.553-1.028.155-5.631,1.252-6.246,4.331-1.155,4.874.554,4.7Z" transform="translate(-941.282 -84.333)" fill="#5b91f1"/>
          <path id="Контур_124" data-name="Контур 124" d="M1523.855,248.133s1.3.708,1.972,1.042v-3.9c1.706.084,3.907,2.859,3.907,2.859l1.493,1.643,1.679.833-.247.831-2.531-.254s-1.616-.753-2.879-1.369c.238,1.543.577,3.467.577,3.467l1.252,1.775s.94,1.505,1.72,2.767l1.927-4.052,3.021,1.5c.081-1.151.189-3.6.189-3.6l-2.092-3.9-1.776-1.658-3.685-2.908-2.152-3.824-.109-5.66s-2.3-1.156-3.5-1.7c-.344.866-.994,2.606-.994,2.606l-.055,2.761-.559,4.067s1.651,2,2.631,3.081C1521.7,245.727,1523.855,248.133,1523.855,248.133Z" transform="translate(-941.068 -75.061)" fill="#5b91f1"/>
          <path id="Контур_125" data-name="Контур 125" d="M1625.808,423.694l-9.329,5.49-8.093,4.4s-1.176,1.355-2.113,2.489c1.742.4,4.035.879,4.035.879l9.017-4.262,3.3-1.8,10.09-7.256s.475-1.155.607-1.5C1630.068,419.516,1625.808,423.694,1625.808,423.694Z" transform="translate(-955.802 -107.766)" fill="#5b91f1"/>
          <path id="Контур_126" data-name="Контур 126" d="M1652.551,409.53l-3.652-3.463s-.5-3.641-1.947-4.921a3.738,3.738,0,0,0-1.292,3.271l-3.925,8.99s-.782.76-1.307,1.285c3.044,2.132-.489,3.533-.453,5.622,2.74-.3,6.658-3.374,6.658-3.374l4.439-3.708s2.2-2.032,3.3-3.052l-.493-.661C1653.436,409.519,1652.551,409.53,1652.551,409.53Z" transform="translate(-961.627 -104.288)" fill="#5b91f1"/>
          <path id="Контур_127" data-name="Контур 127" d="M1163.688,87.132c-1.7-2.133-5.458-2.687-5.458-2.687l-7.14.854-1.233-.453s-3.967-.821-5.783,1.906h2.841V90.4C1153.217,92.687,1158.368,90.392,1163.688,87.132Z" transform="translate(-875.927 -49.556)" fill="#5b91f1"/>
          <path id="Контур_128" data-name="Контур 128" d="M1632.3,314.614l-7.553-1.586c-.63-1.012-1.634-2.593-1.634-2.593l-1.07-1s-7.647-6.306-11.472-9.457l-.635.625c1.17,1.3,1.2,4.442,1.2,4.442l-3.07,2.1s-2.775.525-4.227.767c2.208,3.665,5.625,2.908,10.308-2.568l7.954,6.5c.047.873.1,1.938.2,3.73,1.915-2.329,4.023,2.82,6-1.282a16.913,16.913,0,0,1,1.132,3.176l.682,1.845s1.441-.3,2.206-.513c.716,2.634.716,2.634,2.63,2.927Q1633.563,318,1632.3,314.614Z" transform="translate(-955.382 -86.804)" fill="#5b91f1"/>
          <path id="Контур_129" data-name="Контур 129" d="M977.538,59.565l-.357.631,1.857,1.108,14.683.007,3.266-2.05-.4-.613-2.67-.61L991.156,58l-5.292-.24-9.253-1.647-5.994,1.8.169,1Z" transform="translate(-845.95 -44.66)" fill="#5b91f1"/>
          <path id="Контур_130" data-name="Контур 130" d="M1177.3,120.616s.576-2,.882-2.992c-1.315-.381-3.937-1.025-3.937-1.025l-2.625,1.8s-3.068,1.921-1.959,4.143l-2.052,1.556c.618.948,1.185,1.818,1.913,2.937C1172.177,124.757,1177.3,120.616,1177.3,120.616Z" transform="translate(-879.995 -55.113)" fill="#5b91f1"/>
          <path id="Контур_131" data-name="Контур 131" d="M1538.839,260.26l.061-.1-.026.026.026-.027-.077-.038c0,.043-.005.085-.011.129Z" transform="translate(-944.144 -79.917)" fill="#5b91f1"/>
          <path id="Контур_132" data-name="Контур 132" d="M1529.932,268.1c.544-.2,1.519-.569,1.519-.569l3.111,1.058s2.333,2.524,3.49,3.683c1.008-1.882,2.381-4.439,2.381-4.439s-1.05-7.148-3.13-7.543l-2.1,3.342C1531.521,262.89,1529.84,264.313,1529.932,268.1Z" transform="translate(-942.609 -79.945)" fill="#5b91f1"/>
          <path id="Контур_133" data-name="Контур 133" d="M1548.345,299.647s2.342.27,3.58.4c.055-.222.152-.677.152-.677l-.363-.9-6-.519-2.378-.27s-.926-3.3.591-4.588l1.922,2.07c.15-2.244.267-3.99.407-6.073,2.471-2.248,2.471-2.248.93-3.749.2-.866.368-1.573.532-2.281l-.844-.438c-.848,1.514-2.407,4.54-2.407,4.54l-5.442,6.783s-.937.364-1.865.735l4.558,2.6c-.1,1.2-.213,2.587-.213,2.587l3.583.445Z" transform="translate(-943.859 -83.806)" fill="#5b91f1"/>
          <path id="Контур_134" data-name="Контур 134" d="M1561.657,423.294l-.825,3.41,1.96,2.708s7.7-4.048,7.343-8.178c-1.865,0-5.345-.1-5.345-.1Z" transform="translate(-947.949 -107.742)" fill="#5b91f1"/>
          <path id="Контур_135" data-name="Контур 135" d="M1037.4,53.552l7.077-1.364,2.069-1.039-12.073-1.361-1.833,1.614,1.93,2.026Z" transform="translate(-856.669 -43.567)" fill="#5b91f1"/>
          <path id="Контур_136" data-name="Контур 136" d="M1412.077,260.729c0,2.86.1,8.227.1,8.227l2,2.4,3.475-3.221S1414.959,261.628,1412.077,260.729Z" transform="translate(-922.242 -80.021)" fill="#5b91f1"/>
          <path id="Контур_137" data-name="Контур 137" d="M1016.428,52.807l6.5,1.706-3.525.308-.107.851,4.253,1.71-.449,1.872,13.351,1.081,5.655-3.6,4.926-1.439,5.507-2.406,26.414-6.79,2.2-.974-.174-.94-40.7,2.642,4.444,1.849-2.651,3.119-2.834.578-9.508,3.842-2.4-.935-4.436-.791-.018-.011,4.231-1.168-.08-.9-11.95-2.626-1.12,1.028.484,1.24Z" transform="translate(-853.44 -42.599)" fill="#5b91f1"/>
          <path id="Контур_138" data-name="Контур 138" d="M1664.962,262.928l-.43.327v3.937c-1.085-.257-2.627-.612-2.627-.612s-1.644-.215-2.418-.311c-1.5-4.767-1.563-4.836-4.149-4.391.913.828,2.344,2.236,2.344,2.236s2.038,3.5,4.246,3.713c.111,1.382.209,2.611.307,3.839l.623-.056V267.9c3.711-.688,4.088,2.965,6,4.608-.371-1.918-1.491-5.5-1.491-5.5S1665.78,264.283,1664.962,262.928Z" transform="translate(-964.282 -80.189)" fill="#5b91f1"/>
          <path id="Контур_139" data-name="Контур 139" d="M1016.165,57.933l-.216-.8-7.221.753-4.659.927,10.5,1.317Z" transform="translate(-851.732 -44.836)" fill="#5b91f1"/>
          <path id="Контур_140" data-name="Контур 140" d="M1016.782,60.737l-.026.011-.055.075Z" transform="translate(-853.915 -45.459)" fill="#5b91f1"/>
          <path id="Контур_141" data-name="Контур 141" d="M1520.6,220.114c.561-2.78,1.463-7.618,1.463-7.618l-1.3-1.461-2.039.656S1517.457,217.887,1520.6,220.114Z" transform="translate(-940.629 -71.433)" fill="#5b91f1"/>
          <path id="Контур_142" data-name="Контур 142" d="M1542.567,318.732c.014-.222.027-.442.041-.663-1.136-.069-3.381-.129-3.381-.129l-5.066,2.749s-.519,1.5-.757,2.289c.628.155,1.855.409,1.855.409S1540.141,320.3,1542.567,318.732Z" transform="translate(-943.21 -89.908)" fill="#5b91f1"/>
          <path id="Контур_143" data-name="Контур 143" d="M1681.891,344.978l-2,.974-1.495,1.284.766,1.609,2.6.354s.443-1.4.7-2.358l3.765-3.5A6.432,6.432,0,0,0,1681.891,344.978Z" transform="translate(-968.267 -94.294)" fill="#5b91f1"/>
          <path id="Контур_144" data-name="Контур 144" d="M1678.424,292.83c-1.033-2.782-4.878-4.188-3.33-8.626-1.145.609-2.062,1.137-2.062,1.137l.443,3.049s2.789,3.387,4.215,5.058Z" transform="translate(-967.34 -84.078)" fill="#5b91f1"/>
          <path id="Контур_145" data-name="Контур 145" d="M976.6,211.275l-.109,3.668,4.927-4.071-1.212-1.1Z" transform="translate(-846.966 -71.215)" fill="#5b91f1"/>
          <path id="Контур_146" data-name="Контур 146" d="M1005.5,234.447l2.763-1.107-2.392-1.178-1.936.844Z" transform="translate(-851.708 -75.084)" fill="#5b91f1"/>
          <path id="Контур_147" data-name="Контур 147" d="M1682.58,297.187l.364-.012s.628-.744.937-1.121c-.586-.047-1.755-.108-1.755-.108s-.955.449-1.429.69C1681.624,298.513,1682.58,297.187,1682.58,297.187Z" transform="translate(-968.664 -86.107)" fill="#5b91f1"/>
        </g>
      </g>
    </g>
    <path id="Контур_148" data-name="Контур 148" d="M971.843,124.615c72.581-82.6,160.64-82.817,210.748-12.624" transform="translate(-30.918 -13.828)" fill="none" stroke="#fff" stroke-miterlimit="10" stroke-width="1" stroke-dasharray="4"/>
    <path id="Контур_149" data-name="Контур 149" d="M1209.544,220.463c56.875-70.8,135.706-81.232,187.475-34.106" transform="translate(-71.997 -30.54)" fill="none" stroke="#fff" stroke-miterlimit="10" stroke-width="1" stroke-dasharray="4"/>
    <path id="Контур_150" data-name="Контур 150" d="M1027.786,370.508c57.763-89.328,140.528-100.323,196.543-38.1" transform="translate(-40.586 -53.961)" fill="none" stroke="#fff" stroke-miterlimit="10" stroke-width="1" stroke-dasharray="4"/>
    <path id="Контур_151" data-name="Контур 151" d="M1323.735,115.05c57.763-89.329,140.529-100.323,196.543-38.1" transform="translate(-91.731 -9.814)" fill="none" stroke="#fff" stroke-miterlimit="10" stroke-width="1" stroke-dasharray="4"/>
    <path id="Контур_152" data-name="Контур 152" d="M973.5,138.827l-5.1,2.329.612-5.539" transform="translate(-30.324 -26.74)" fill="#fff"/>
    <path id="Контур_153" data-name="Контур 153" d="M1262.61,341.716l4.18-3.738,1.059,5.471" transform="translate(-81.167 -61.711)" fill="#fff"/>
    <path id="Контур_154" data-name="Контур 154" d="M1028.93,388.853l-5.007-2.526,4.706-2.985" transform="translate(-39.918 -69.551)" fill="#fff"/>
    <path id="Контур_155" data-name="Контур 155" d="M1209.583,228.4l4.516,3.325-5.137,2.159" transform="translate(-71.896 -42.775)" fill="#fff"/>
    <path id="Контур_156" data-name="Контур 156" d="M1322.091,132.745l.237-5.6,4.659,3.057" transform="translate(-91.447 -25.275)" fill="#fff"/>
    <g id="Сгруппировать_28" data-name="Сгруппировать 28" transform="translate(1325.772 150.209)">
      <g id="Сгруппировать_25" data-name="Сгруппировать 25" transform="translate(2.07)">
        <g id="Сгруппировать_24" data-name="Сгруппировать 24">
          <path id="Контур_157" data-name="Контур 157" d="M1442.03,185.584a2.59,2.59,0,1,0,2.433,2.585A2.516,2.516,0,0,0,1442.03,185.584Z" transform="translate(-1439.596 -185.584)" fill="#fff"/>
        </g>
      </g>
      <g id="Сгруппировать_27" data-name="Сгруппировать 27" transform="translate(0 5.77)">
        <g id="Сгруппировать_26" data-name="Сгруппировать 26">
          <path id="Контур_158" data-name="Контур 158" d="M1441.6,192.559a4.508,4.508,0,0,0-4.5,4.5v.676h9.007v-.676A4.508,4.508,0,0,0,1441.6,192.559Z" transform="translate(-1437.093 -192.559)" fill="#fff"/>
        </g>
      </g>
    </g>
    <g id="Сгруппировать_29" data-name="Сгруппировать 29" transform="translate(919.926 109.881)">
      <path id="Контур_159" data-name="Контур 159" d="M946.529,152.991a.4.4,0,0,0,.332.174h12.984a.4.4,0,0,0,.378-.545,3.332,3.332,0,0,0-.572-.93.4.4,0,0,0-.306-.141H947.36a.4.4,0,0,0-.306.141,3.339,3.339,0,0,0-.572.93.4.4,0,0,0,.046.371Z" transform="translate(-946.457 -139.374)" fill="#fff"/>
      <path id="Контур_160" data-name="Контур 160" d="M948.411,144.678h2.451v4.875h-2.451Z" transform="translate(-946.795 -138.187)" fill="#fff"/>
      <path id="Контур_161" data-name="Контур 161" d="M953.328,144.678h2.424v4.875h-2.424Z" transform="translate(-947.645 -138.187)" fill="#fff"/>
      <path id="Контур_162" data-name="Контур 162" d="M958.212,144.678h2.451v4.875h-2.451Z" transform="translate(-948.489 -138.187)" fill="#fff"/>
      <path id="Контур_163" data-name="Контур 163" d="M947.331,143.244a.41.41,0,0,0,.286.119h11.471a.408.408,0,0,0,.285-.119,3.522,3.522,0,0,0,.874-1.5H946.457a3.52,3.52,0,0,0,.874,1.5Z" transform="translate(-946.457 -137.68)" fill="#fff"/>
      <path id="Контур_164" data-name="Контур 164" d="M960.044,140.089l-6.457-3.216a.4.4,0,0,0-.362,0l-6.458,3.216Z" transform="translate(-946.511 -136.83)" fill="#fff"/>
    </g>
    <circle id="Эллипс_4" data-name="Эллипс 4" cx="2.063" cy="2.063" r="2.063" transform="translate(1151.673 99.458)" fill="#fff"/>
    <circle id="Эллипс_5" data-name="Эллипс 5" cx="2.063" cy="2.063" r="2.063" transform="translate(1426.911 67.924)" fill="#fff"/>
  </g>
</svg>
