<svg width="214" height="59" viewBox="0 0 214 59" fill="none" xmlns="http://www.w3.org/2000/svg">
<g id="logo 1">
<g id="Group">
<path id="Vector" d="M31.7681 34.3145L25.4727 30.3062L25.9136 24.0049H22.8108L17.6695 19.5043L11.9946 23.269L18.9106 29.161L16.8693 36.605L23.788 42.2509L31.7681 38.569V34.3145Z" fill="white"/>
<path id="Vector_2" d="M16.8694 14.7601V17.706L28.3987 22.0409L26.9779 28.5055L32.5657 31.8608V10.8321H22.5442L16.8694 14.7601Z" fill="white"/>
<path id="Vector_3" d="M32.5657 47.2437V40.2065L25.8267 43.6423L32.5657 47.2437Z" fill="white"/>
<path id="Vector_4" d="M53.1448 23.269L47.47 19.5043L42.3259 24.0049H39.2231L39.6667 30.3062L33.3713 34.3145V38.569L41.3515 42.2509L48.2675 36.605L46.2289 29.161L53.1448 23.269Z" fill="white"/>
<path id="Vector_5" d="M36.7407 22.0409L48.2673 17.706V14.7601L42.5925 10.8321H32.5737V31.8608L38.1588 28.5055L36.7407 22.0409Z" fill="white"/>
<path id="Vector_6" d="M32.5737 47.2437L39.3128 43.6423L32.5737 40.2065V47.2437Z" fill="white"/>
</g>
<g id="Group_2">
<g id="Group_3">
<path id="Vector_7" d="M32.5657 58.0331C15.5548 58.0331 1.71741 45.2646 1.71741 29.5678C1.71741 13.8735 15.5548 1.10504 32.5657 1.10504C49.5766 1.10504 63.4139 13.8735 63.4139 29.5703C63.4139 45.2646 49.5739 58.0331 32.5657 58.0331ZM32.5657 5.12343C17.9581 5.12343 6.0722 16.0911 6.0722 29.5703C6.0722 43.0495 17.9581 54.0172 32.5657 54.0172C47.1733 54.0172 59.0592 43.0495 59.0592 29.5703C59.0592 16.0911 47.1733 5.12343 32.5657 5.12343Z" fill="white"/>
</g>
</g>
<g id="Group_4">
<path id="Vector_8" d="M82.194 41.957C80.58 41.957 77.1044 41.7662 74.7882 41.1936C74.2928 41.078 74.0016 40.7741 74.0016 40.3145V38.024C74.0016 37.7176 74.2901 37.4138 74.7038 37.4138C74.7854 37.4138 74.829 37.4138 74.8698 37.4138C76.8567 37.6423 80.58 37.8332 81.8184 37.8332C84.3823 37.8332 84.7552 37.032 84.7552 35.9998C84.7552 35.274 84.2598 34.8169 82.9343 34.0534L77.2677 30.8462C75.24 29.701 73.792 27.7922 73.792 25.5796C73.792 21.7621 76.3994 19.8534 81.6524 19.8534C85.0029 19.8534 86.9054 20.1975 89.0147 20.6169C89.5101 20.7324 89.7605 21.0363 89.7605 21.4959V23.711C89.7605 24.1681 89.5128 24.4369 89.0991 24.4369C89.0174 24.4369 88.9739 24.4369 88.9331 24.4369C87.7736 24.2837 84.464 23.9798 82.1069 23.9798C80.1201 23.9798 79.2518 24.3992 79.2518 25.5821C79.2518 26.1924 79.8724 26.5741 80.9066 27.1468L86.3256 30.2007C89.8013 32.1472 90.2967 34.0559 90.2967 36.0023C90.3048 39.3225 87.6157 41.957 82.194 41.957Z" fill="white"/>
<path id="Vector_9" d="M127.783 41.6506H123.978C123.524 41.6506 123.151 41.2689 123.151 40.8495V27.8701C123.151 24.9316 122.489 24.1681 120.173 24.1681C119.387 24.1681 117.816 24.3967 116.325 25.1225C116.45 25.9613 116.491 26.9157 116.491 27.8701V40.8495C116.491 41.2689 116.118 41.6506 115.663 41.6506H111.858C111.404 41.6506 111.031 41.2689 111.031 40.8495V27.8701C111.031 24.9316 110.492 24.1681 108.176 24.1681C107.307 24.1681 106.066 24.5876 104.371 25.4289V40.852C104.371 41.2714 103.998 41.6532 103.543 41.6532H99.7383C99.2838 41.6532 98.9109 41.2714 98.9109 40.852V20.8856C98.9109 20.4662 99.2838 20.1221 99.7383 20.1221H103.336C103.791 20.1221 104.164 20.4662 104.164 20.8856V21.6868C105.9 20.6571 107.64 19.8534 110.081 19.8534C112.438 19.8534 113.97 20.5014 114.92 21.5713C117.03 20.5014 118.891 19.8534 121.746 19.8534C127.372 19.8534 128.613 23.4046 128.613 27.8701V40.8495C128.611 41.2714 128.24 41.6506 127.783 41.6506Z" fill="white"/>
<path id="Vector_10" d="M142.927 17.259H138.915C138.461 17.259 138.047 16.9149 138.047 16.4955V13.1376C138.047 12.7182 138.461 12.3741 138.915 12.3741H142.927C143.381 12.3741 143.754 12.7182 143.754 13.1376V16.498C143.754 16.9149 143.381 17.259 142.927 17.259ZM142.802 41.6506H138.997C138.542 41.6506 138.169 41.2689 138.169 40.8495V20.8856C138.169 20.4662 138.542 20.1221 138.997 20.1221H142.802C143.256 20.1221 143.629 20.4662 143.629 20.8856V40.8495C143.629 41.2714 143.256 41.6506 142.802 41.6506Z" fill="white"/>
<path id="Vector_11" d="M171.473 41.6506H167.668C167.213 41.6506 166.84 41.2689 166.84 40.8495V28.405C166.84 25.0848 166.508 24.1305 163.324 24.1305C161.917 24.1305 160.387 24.6654 158.648 25.5043V40.8495C158.648 41.2689 158.275 41.6506 157.82 41.6506H154.015C153.561 41.6506 153.188 41.2689 153.188 40.8495V20.8856C153.188 20.4662 153.561 20.1221 154.015 20.1221H157.614C158.068 20.1221 158.441 20.4662 158.441 20.8856V21.6868C160.842 20.2753 162.412 19.8534 165.142 19.8534C171.1 19.8534 172.297 23.5553 172.297 28.405V40.8495C172.3 41.2714 171.927 41.6506 171.473 41.6506Z" fill="white"/>
<path id="Vector_12" d="M193.976 41.6908C192.983 41.844 192.074 41.957 191.165 41.957C186.489 41.957 184.586 41.0027 184.586 35.8868V23.9019L180.697 23.367C180.242 23.2916 179.869 23.0229 179.869 22.6035V20.8856C179.869 20.4662 180.242 20.1221 180.697 20.1221H184.586V16.9928C184.586 16.5734 184.959 16.3047 185.414 16.2293L189.259 15.619C189.3 15.619 189.385 15.619 189.425 15.619C189.798 15.619 190.087 15.8099 190.087 16.1916V20.1246H193.81C194.265 20.1246 194.638 20.4687 194.638 20.8881V23.1409C194.638 23.5604 194.265 23.9044 193.81 23.9044H190.087V35.8918C190.087 37.8005 190.212 38.0291 191.701 38.0291H193.895C194.433 38.0291 194.763 38.2199 194.763 38.6017V41.0077C194.763 41.3844 194.515 41.613 193.976 41.6908Z" fill="white"/>
<path id="Vector_13" d="M207.422 17.259H203.41C202.955 17.259 202.542 16.9149 202.542 16.4955V13.1376C202.542 12.7182 202.955 12.3741 203.41 12.3741H207.422C207.876 12.3741 208.249 12.7182 208.249 13.1376V16.498C208.249 16.9149 207.879 17.259 207.422 17.259ZM207.299 41.6506H203.494C203.04 41.6506 202.667 41.2689 202.667 40.8495V20.8856C202.667 20.4662 203.04 20.1221 203.494 20.1221H207.299C207.754 20.1221 208.127 20.4662 208.127 20.8856V40.8495C208.127 41.2714 207.754 41.6506 207.299 41.6506Z" fill="white"/>
</g>
</g>
</svg>
