<svg xmlns="http://www.w3.org/2000/svg" width="466.486" height="120.74" viewBox="0 0 466.486 120.74">
  <g>
    <path d="M145.86,90.632V80.438l28.6-39.949H157.7V51.463H147.466V30.3h46.585v9.066L164.59,80.438h19.875V68.856h10.194V90.632Zm58.594-54.024a7.356,7.356,0,0,1,7.331-7.353,7.014,7.014,0,0,1,5.2,2.163,7.139,7.139,0,0,1,2.126,5.19,7.331,7.331,0,0,1-14.661,0Zm-5.9,21.708V48.643h19.779V80.959h6.247v9.673H198.555V80.959h6.376V58.316Zm78.122-9.673v9.673h-6.94v31.04q0,20.795-21.949,20.8-12.58,0-18.738-4.554l6.506-8.892a19.307,19.307,0,0,0,10.193,3.122,12.158,12.158,0,0,0,7.526-2.3q3.057-2.3,3.059-8.935V85.383q-6.552,5.856-12.753,5.856-7.288,0-12.428-6.095t-5.14-15.55q0-9.5,5.292-15.551a16.542,16.542,0,0,1,12.926-6.05,15.008,15.008,0,0,1,12.1,5.8V48.643Zm-20.3,21.124a12.9,12.9,0,0,0-2.256-8.023,7.334,7.334,0,0,0-6.16-2.95,6.957,6.957,0,0,0-6.094,3.036,13.422,13.422,0,0,0-2.1,7.807,12.928,12.928,0,0,0,2.19,7.787,7.022,7.022,0,0,0,6.007,3.014,7.638,7.638,0,0,0,5.964-2.8q2.451-2.8,2.452-7.873Zm23.164-11.451V48.643h19.823v3.9q6.072-4.552,12.318-4.554,12.711,0,12.71,16.222V80.959h6.333v9.673H310.988V65.213q0-3.426-.932-4.685A3.561,3.561,0,0,0,307,59.271,13.328,13.328,0,0,0,299.364,62V80.959h6.463v9.673H279.541V80.959h6.42V58.316ZM333.7,90.632V70.072h10.237q.173,5.637,2.949,8.306a8.893,8.893,0,0,0,6.333,2.667,6.334,6.334,0,0,0,4.684-1.929,6.242,6.242,0,0,0,1.909-4.533,6.372,6.372,0,0,0-1.865-4.663,26.288,26.288,0,0,0-6.817-4.3q-10.471-5.038-14.211-8.906t-3.739-10.428q0-7.909,4.944-12.253a16.554,16.554,0,0,1,11.234-4.346,12.828,12.828,0,0,1,11.147,5.618V30.3H370.7V48.643H360.509a10.284,10.284,0,0,0-2.927-6.571,8.043,8.043,0,0,0-5.7-2.321,6.732,6.732,0,0,0-4.251,1.345,4.239,4.239,0,0,0-1.736,3.514,5.356,5.356,0,0,0,1.433,3.535q1.431,1.669,8.38,4.734a69.965,69.965,0,0,1,10.26,5.388,17.419,17.419,0,0,1,5.654,6.251A18.375,18.375,0,0,1,373.7,73.4q0,8.944-5.205,13.458a18.188,18.188,0,0,1-12.32,4.514q-7.936,0-12.23-5.876v5.14Zm75.5-12.666,10.41,3.34q-6.55,10.28-20.473,10.28-11.1,0-17.329-5.856t-6.224-15.4a22.173,22.173,0,0,1,6.419-16.223Q388.429,47.6,398.36,47.6a21.275,21.275,0,0,1,12.449,3.644,19.144,19.144,0,0,1,7.287,9.064,34.16,34.16,0,0,1,2.038,12.1H388.861q.3,5.727,3.621,8.112a11.812,11.812,0,0,0,7.006,2.386q4.814,0,9.716-4.945Zm-2.559-13.013a10.667,10.667,0,0,0-2.75-5.986,8.061,8.061,0,0,0-6.23-2.472q-7.373,0-8.588,8.458Zm58.582-16.31V65.691h-9.542q-3.253-7.028-10.194-7.027a9,9,0,0,0-7.049,2.928,11.292,11.292,0,0,0-2.624,7.828q0,5.944,2.776,8.784a9.15,9.15,0,0,0,6.811,2.841,11.025,11.025,0,0,0,6.073-1.843,13.918,13.918,0,0,0,4.6-4.88L466.486,78.9Q460.672,91.585,446.1,91.586q-10.973,0-17.5-5.986t-6.528-16.006q0-10.02,6.4-15.811a21.52,21.52,0,0,1,14.9-5.79,21.759,21.759,0,0,1,12.709,4.121V48.643Z" fill="#003c4c"/>
    <path d="M44.617,69.739l62.894-36.312a1.807,1.807,0,0,0,0-3.129L55.821.455a3.392,3.392,0,0,0-3.4,0L.3,30.631v7.763l53.042-30.7a1.577,1.577,0,0,1,1.579,0L96.782,31.863l-9.856,5.69L55.819,19.6a3.394,3.394,0,0,0-3.4,0L.3,49.785v7.764L53.337,26.833a1.577,1.577,0,0,1,1.579,0l25.29,14.6-9.856,5.69L55.821,38.735a3.393,3.393,0,0,0-3.4,0L.3,68.945v7.767L53.338,45.974a1.579,1.579,0,0,1,1.58,0L63.632,51,.9,87.317a1.806,1.806,0,0,0,0,3.126l51.525,29.84a3.391,3.391,0,0,0,3.411-.006l52.7-30.782V81.713L54.906,113.041a1.577,1.577,0,0,1-1.584,0L11.465,88.879l9.857-5.69,31.105,17.959a3.391,3.391,0,0,0,3.41-.01l52.7-30.846V62.507L54.9,93.9a1.576,1.576,0,0,1-1.585.005L28.041,79.309l9.856-5.69,14.531,8.388A3.392,3.392,0,0,0,55.841,82l52.7-30.932V43.274L54.9,74.755a1.58,1.58,0,0,1-1.587.006Z" fill="#ff4a00"/>
  </g>
</svg>
